<svg id="Capa_1" data-name="Capa 1" xmlns="http://www.w3.org/2000/svg" xmlns:xlink="http://www.w3.org/1999/xlink" viewBox="0 0 1920 600"><defs><style>.cls-1{fill:none;}.cls-2{fill:#092854;}.cls-3,.cls-6{fill:#fff;}.cls-3{opacity:0.8;}.cls-4{clip-path:url(#clip-path);}.cls-5{fill:#b395af;opacity:0.86;}.cls-7{fill:#84769e;}.cls-8{fill:#525c80;}.cls-9{fill:#a0b3c4;}.cls-10{fill:#252632;}</style><clipPath id="clip-path"><rect class="cls-1" x="-8.05" y="-562.13" width="1937.86" height="1291.91"/></clipPath></defs><title>Sin título-2</title><rect class="cls-2" x="-8.05" y="-590.13" width="1937.86" height="1291.91"/><circle class="cls-3" cx="570.86" cy="279.68" r="166.79"/><g class="cls-4"><path class="cls-5" d="M-1.93,192.07s42.38-88,61.94-65.2S79.57,78,115.43,84.49s61.94,159.74,88,159.74,32.6-13,55.42-13,22.82,91.28,55.42,91.28,26.08-45.64,58.68-32.6,55.42,97.8,55.42,97.8L203.46,456.13l-211.91-75Z"/><path class="cls-5" d="M1213.16,378.09s9.84-61.2,39.37-62.77,21.89,20.74,43.31,11c13.78-6.27,17.72-58.06,45.28-59.62,13.74-.79,23.88,21.9,51.18,15.69,27.56-6.28,31.49-42.37,49.21-42.37s37.4,72.18,51.18,73.75,9.85-15.69,35.44-18.83,29.52,43.94,47.24,40.8,39.37-33,51.18-22S1662,376.52,1662,376.52l-220.48,39.23Z"/><circle class="cls-6" cx="456.28" cy="59.55" r="5.85"/><circle class="cls-6" cx="761.85" cy="249.83" r="5.85"/><circle class="cls-6" cx="744.62" cy="50.9" r="5.85"/><circle class="cls-6" cx="963.85" cy="189.16" r="2.78"/><circle class="cls-6" cx="317.86" cy="16.21" r="2.78"/><circle class="cls-6" cx="511.1" cy="91.2" r="2.78"/><circle class="cls-6" cx="643.57" cy="117.16" r="2.78"/><circle class="cls-6" cx="147.38" cy="1.89" r="2.78"/><circle class="cls-6" cx="1108.02" cy="85.61" r="5.85"/><circle class="cls-6" cx="1396.36" cy="76.96" r="5.85"/><circle class="cls-6" cx="1289.65" cy="10.44" r="2.78"/><circle class="cls-6" cx="1162.84" cy="117.26" r="2.78"/><circle class="cls-6" cx="1295.31" cy="143.22" r="2.78"/><circle class="cls-6" cx="1673.53" cy="151.95" r="5.85"/><circle class="cls-6" cx="1855.16" cy="76.78" r="2.78"/><path class="cls-6" d="M1728.36,180.82a2.78,2.78,0,1,1,0,5.56"/><circle class="cls-6" cx="35.3" cy="273.01" r="2.78"/><circle class="cls-6" cx="167.77" cy="298.97" r="2.78"/><circle class="cls-6" cx="1632.97" cy="56.69" r="2.78"/><circle class="cls-6" cx="1557.88" cy="209.45" r="2.78"/><circle class="cls-6" cx="268.72" cy="174.74" r="2.78"/><path class="cls-5" d="M1789,318.81s-12.53-65.8,21.93-75.2,34.47-81.47,75.2-72.07S1930,293.74,1930,293.74v65.8Z"/><path class="cls-5" d="M1051.68,360s-45.22-81.12-94.2-128.71-49,47.59-71.6,38.94-67.82,69.22-67.82,69.22l199.71,43.26Z"/><path class="cls-7" d="M-102.81,291S1,252.06,104.86,256.38s190.36,103.84,281.21,90.86S537.5,308.3,632.68,299.65c47.59-4.33,115.73,9.73,181.7,24.88s129.8,31.36,168.73,31.36c77.88,0,151.43-17.3,203.34-17.3s233.63,73.54,302.85,69.22S1597.46,304,1701.29,291s289.87,13,289.87,13l-17.31,294.2L-59.54,593.84Z"/><path class="cls-8" d="M-46.56,354.5s199-34.61,298.52,17.31,125.46,56.24,164.4,56.24,99.5-38.94,164.4-26,112.49,47.59,164.4,43.27S883.61,454,883.61,454l26,112.48L381.75,627.06,74.57,488.62Z"/><path class="cls-8" d="M1099.93,480s75.52-64.9,177.38-43.27,177.38,38.94,229.3,0,99.5-8.65,186-38.93,125.46-26,181.71-26,203.34,90.85,203.34,90.85L1519.58,592.45Z"/><path class="cls-9" d="M987,497.82a19.1,19.1,0,0,0-2.86,3.75l-1.2-.62a1.56,1.56,0,1,0-1.34,1.89,1.49,1.49,0,0,0,.47-.13l1.17.6a18.9,18.9,0,0,0-1.4,4.51l1.93.34a17.08,17.08,0,0,1,4.63-9Z"/><path class="cls-9" d="M1001.17,491.87c-.44,0-.88,0-1.32,0l-.19-1.61a1.86,1.86,0,1,0-1.94.22l.19,1.61a19.49,19.49,0,0,0-5.32,1.67l.84,1.77a17.71,17.71,0,0,1,7.74-1.74,18,18,0,0,1,3.81.41l.42-1.92A20.06,20.06,0,0,0,1001.17,491.87Z"/><path class="cls-9" d="M1018.23,498.45a1.56,1.56,0,1,0-1.75-1.52l-1.07.94a20.08,20.08,0,0,0-3.64-2.95l-1,1.66a17.38,17.38,0,0,1,6.63,7.56l1.78-.81a19.09,19.09,0,0,0-2.43-4l1-.91A1.6,1.6,0,0,0,1018.23,498.45Z"/><path class="cls-9" d="M999.76,518.25c-1,.06-2,.09-3,.09a41.14,41.14,0,0,1-6.41-.47,22.86,22.86,0,0,1-3.28-.75,16,16,0,0,0,29.29-3.56,25.06,25.06,0,0,1-6.35,2.9A43.89,43.89,0,0,1,999.76,518.25Z"/><path class="cls-9" d="M1001.17,495.79a15.55,15.55,0,0,0-15.71,15.35,14.81,14.81,0,0,0,.36,3.26c1.74,1.25,7,2.3,13.81,1.89,7.44-.45,13.69-2.47,17.24-5.58,0-.5,0-1-.11-1.5A15.62,15.62,0,0,0,1001.17,495.79Zm-5.58,16.83a4.78,4.78,0,1,1,4.78-4.78A4.79,4.79,0,0,1,995.59,512.62Zm12.24-2.35a3.52,3.52,0,1,1,3.52-3.51A3.51,3.51,0,0,1,1007.83,510.27Z"/><path class="cls-9" d="M1042.52,500.61A7.21,7.21,0,0,0,1039,500c-1.42.18-2.18.88-2.18,2.6v2.24h5.75v4.43h-5.75v14.1h-5v-14.1h-3.46v-4.43h3.46v-2.3c0-4.34,2.31-7.19,6.63-7.19a10.22,10.22,0,0,1,4.11.8Z"/><path class="cls-9" d="M1054.67,509.22a8,8,0,0,0-1.36-.12c-2.31,0-3.9,1.42-3.9,4.17v10.1h-5V504.84h4.84v2a5.83,5.83,0,0,1,5.22-2.52,4.65,4.65,0,0,1,2.83.87Z"/><path class="cls-9" d="M1074.48,514.07a16.27,16.27,0,0,1-.09,1.69h-13.14a4.47,4.47,0,0,0,4.76,3.84,7.44,7.44,0,0,0,4.68-1.78l2.93,3.21a11.21,11.21,0,0,1-7.9,2.82c-5.68,0-9.62-3.87-9.62-9.7s3.83-9.81,9.37-9.81C1070.81,504.34,1074.46,508.3,1074.48,514.07Zm-13.21-1.72h8.2c-.46-2.37-1.89-3.71-4-3.71C1063.08,508.64,1061.71,510.06,1061.27,512.35Z"/><path class="cls-9" d="M1094.26,514.07a13.72,13.72,0,0,1-.1,1.69H1081a4.48,4.48,0,0,0,4.76,3.84,7.49,7.49,0,0,0,4.69-1.78l2.93,3.21a11.24,11.24,0,0,1-7.9,2.82c-5.68,0-9.62-3.87-9.62-9.7s3.82-9.81,9.37-9.81C1090.58,504.34,1094.24,508.3,1094.26,514.07ZM1081,512.35h8.21c-.46-2.37-1.9-3.71-4-3.71C1082.86,508.64,1081.48,510.06,1081,512.35Z"/><path class="cls-9" d="M1115.82,514.09c0,5.57-3.86,9.76-9,9.76a6.79,6.79,0,0,1-5.45-2.41V531h-5V504.84h4.87v2a6.74,6.74,0,0,1,5.53-2.54C1112,504.34,1115.82,508.53,1115.82,514.09Zm-14.67,0c0,2.93,1.93,5.11,4.76,5.11s4.78-2.28,4.78-5.11-1.83-5.1-4.78-5.1S1101.15,511.17,1101.15,514.09Z"/><path class="cls-9" d="M1123.84,498.77a3.19,3.19,0,1,1-3.19-3.21A3.14,3.14,0,0,1,1123.84,498.77Zm-.67,24.6h-5V504.84h5Z"/><path class="cls-9" d="M1131.5,511.44l7-6.6h6.12l-9,8.72,9.05,9.81h-6.14l-7-7.5v7.5h-5V495.83h5Z"/><path class="cls-9" d="M791.42,523.2v-2.72a7.7,7.7,0,0,1-6.17,3.17c-4.77,0-8.14-3.63-8.14-9.57s3.33-9.61,8.14-9.61a7.66,7.66,0,0,1,6.17,3.21V498h2.84V523.2Zm0-5V510a6.86,6.86,0,0,0-5.49-2.95c-3.67,0-5.87,3-5.87,7.08s2.2,7,5.87,7A6.8,6.8,0,0,0,791.42,518.24Z"/><path class="cls-9" d="M797.93,514c0-5.3,3.78-9.57,9-9.57,5.53,0,8.79,4.31,8.79,9.8V515h-14.8a6.44,6.44,0,0,0,6.58,6.32,8,8,0,0,0,5.64-2.31l1.36,1.85a9.89,9.89,0,0,1-7.26,2.8C801.83,523.65,797.93,519.76,797.93,514Zm9-7.23c-3.9,0-5.83,3.3-6,6.1h12A5.93,5.93,0,0,0,806.9,506.81Z"/><path class="cls-9" d="M817.76,520.78l1.47-2a8.27,8.27,0,0,0,6,2.62c2.8,0,4.32-1.33,4.32-3.15,0-4.42-11.32-1.7-11.32-8.47,0-2.84,2.46-5.26,6.81-5.26a9.24,9.24,0,0,1,6.78,2.65l-1.33,2a7.12,7.12,0,0,0-5.45-2.31c-2.49,0-4,1.25-4,2.88,0,4,11.32,1.36,11.32,8.48,0,3.06-2.46,5.52-7.19,5.52A9.7,9.7,0,0,1,817.76,520.78Z"/><path class="cls-9" d="M835.51,500.42a1.91,1.91,0,1,1,3.82,0,1.91,1.91,0,0,1-3.82,0ZM836,523.2V504.92h2.84V523.2Z"/><path class="cls-9" d="M843.53,527.89l1.44-2.12c1.51,1.82,3.33,2.5,5.94,2.5,3,0,5.87-1.47,5.87-5.49v-2.61a7.64,7.64,0,0,1-6.13,3.26c-4.77,0-8.14-3.56-8.14-9.46s3.33-9.5,8.14-9.5a7.59,7.59,0,0,1,6.13,3.21v-2.76h2.84v17.75c0,6.06-4.24,8-8.71,8C847.81,530.62,845.69,530,843.53,527.89Zm13.25-9.95v-8a6.74,6.74,0,0,0-5.45-2.95c-3.67,0-5.87,2.92-5.87,7s2.2,7,5.87,7A6.78,6.78,0,0,0,856.78,517.94Z"/><path class="cls-9" d="M876.69,523.2v-12c0-3.22-1.63-4.24-4.09-4.24a7,7,0,0,0-5.41,2.84V523.2h-2.84V504.92h2.84v2.65a9.06,9.06,0,0,1,6.51-3.1c3.82,0,5.82,1.93,5.82,5.9V523.2Z"/><path class="cls-9" d="M883.19,514c0-5.3,3.79-9.57,9-9.57,5.53,0,8.78,4.31,8.78,9.8V515H886.19a6.43,6.43,0,0,0,6.58,6.32,8,8,0,0,0,5.64-2.31l1.36,1.85a9.89,9.89,0,0,1-7.26,2.8C887.09,523.65,883.19,519.76,883.19,514Zm9-7.23c-3.9,0-5.83,3.3-6,6.1h12A5.92,5.92,0,0,0,892.17,506.81Z"/><path class="cls-9" d="M917.86,523.2v-2.72a7.69,7.69,0,0,1-6.17,3.17c-4.77,0-8.13-3.63-8.13-9.57s3.33-9.61,8.13-9.61a7.65,7.65,0,0,1,6.17,3.21V498h2.84V523.2Zm0-5V510a6.84,6.84,0,0,0-5.48-2.95c-3.68,0-5.87,3-5.87,7.08s2.19,7,5.87,7A6.78,6.78,0,0,0,917.86,518.24Z"/><path class="cls-9" d="M934.25,523.2V498h2.84v9.72a7.59,7.59,0,0,1,6.17-3.21c4.77,0,8.13,3.78,8.13,9.61s-3.36,9.57-8.13,9.57a7.69,7.69,0,0,1-6.17-3.17v2.72Zm8.29-2.08c3.71,0,5.9-3,5.9-7s-2.19-7.08-5.9-7.08a6.79,6.79,0,0,0-5.45,2.95v8.29A6.73,6.73,0,0,0,942.54,521.12Z"/><path class="cls-9" d="M954.5,527.78a4.32,4.32,0,0,0,1.55.3,2.63,2.63,0,0,0,2.73-1.93l1.21-2.76-7.65-18.47h3.07l6.09,15,6.06-15h3.1l-9.16,22a5.44,5.44,0,0,1-5.37,3.71,8.79,8.79,0,0,1-2.09-.27Z"/><path class="cls-10" d="M-33.59,445.36S-120.11,371.81,40,384.79,329.83,536.21,520.19,531.88,922.54,423.72,1074,406.42s294.19,108.16,406.68,108.16S1697,428.05,1805.13,419.4,2025.77,441,2025.77,441L1965.2,756.86-58.52,824.44Z"/><path class="cls-10" d="M161.59,247.08a5.28,5.28,0,0,0-5.55,5.18c0,.37-1.29,37.55-2.56,68-1,24.61-7,37.79-11.67,44.48l-.71-87.94a5.37,5.37,0,0,0-5.37-5.33h0a5.36,5.36,0,0,0-5.32,5.4l.4,49.79c-4.71-3.86-9.3-8.2-10.75-11.11-2.07-4.88-3.31-40.49-3.31-72.09a5.37,5.37,0,1,0-10.73,0c0,16,.32,68.64,4.42,76.84,3.67,7.34,15.73,16.55,20.48,20l.52,63.89c-17-10-13.48-44.23-13.43-44.61a5.37,5.37,0,0,0-10.67-1.18c-.22,2-5,47.91,24.19,57.6l.16,20a5.38,5.38,0,0,0,5.37,5.33h0a5.36,5.36,0,0,0,5.32-5.41l-.45-56.19c4.92-3.11,20.49-16.28,22.27-59.06,1.27-30.47,2.55-67.69,2.57-68.06A5.37,5.37,0,0,0,161.59,247.08Z"/><path class="cls-10" d="M425,418.22a5.37,5.37,0,1,0-10.73,0c0,15-6.18,22.51-10.47,25.89.41-19.93.65-43.67.66-45.09a5.36,5.36,0,0,0-5.31-5.42h-.05a5.37,5.37,0,0,0-5.37,5.31c0,.5-.5,50.16-1.28,66.54-.72,15.13-11.51,22.64-18.79,26V416.93a5.37,5.37,0,1,0-10.73,0v36.24a21.82,21.82,0,0,1-11.23-14.34c-3.65-15.84-2.44-66.18-2.43-66.69a5.37,5.37,0,0,0-10.73-.26c0,1.61-.74,30.72.65,52.2-5.56-3.14-11-7.34-11.9-11-2-7.89-2.4-29.53-2.4-37.2a5.37,5.37,0,0,0-10.74,0c0,1.18,0,29,2.73,39.81,2.77,11.07,18.35,18.74,23.54,21,.25,1.69.52,3.23.83,4.56,3.55,15.4,16,21.59,21.68,23.66v59.85a5.37,5.37,0,0,0,10.73,0V503.08c11.59-4.06,28.48-15.37,29.51-37.12.12-2.48.23-5.69.34-9.33C404.59,456.22,425,448.41,425,418.22Z"/><path class="cls-10" d="M1812.91,337.62c2.7-10.78,2.73-38.62,2.73-39.8a5.37,5.37,0,1,0-10.73,0c0,7.67-.43,29.3-2.41,37.2-.91,3.62-6.17,7.75-11.63,10.87a294.32,294.32,0,0,0,.38-29.77,5.37,5.37,0,0,0-10.72.47c0,.29,1.2,28.43-2.44,44.19a21.81,21.81,0,0,1-11.22,14.35V299.05a5.37,5.37,0,0,0-10.74,0V413.41c-7.28-3.37-18.07-10.88-18.79-26-.78-16.37-1.28-93.39-1.28-94.16a5.41,5.41,0,0,0-5.4-5.33,5.35,5.35,0,0,0-5.33,5.39c0,2.32.27,42.7.72,70.85-4.74-6.6-11.52-21.84-10.52-54.37a5.37,5.37,0,0,0-10.73-.33c-1.74,56.71,18.73,67.86,21.07,69a4,4,0,0,0,.45.15c.1,3.93.2,7.16.3,9.36,1,21.74,17.92,33.05,29.51,37.11V446.7a5.37,5.37,0,1,0,10.74,0V386.86c5.69-2.08,18.13-8.27,21.68-23.66.33-1.46.63-3,.89-4.59C1794.72,356.29,1810.16,348.64,1812.91,337.62Z"/><path class="cls-10" d="M792.28,343.07a5.36,5.36,0,0,0-5.16,5.56c.54,14.78.77,34.57.18,51.3a18.08,18.08,0,0,1-9.79-6.89c-8.3-11.57-4.21-31.75-4.17-32a5.37,5.37,0,1,0-10.5-2.22c-.21,1-5.12,24.95,5.93,40.39a29,29,0,0,0,18,11.6c-.62,9.29-1.6,16.68-3.08,20.22-3.84,9.21-17.66,19-26.3,24.21l.69-54.17a5.38,5.38,0,0,0-5.3-5.43h-.07a5.36,5.36,0,0,0-5.36,5.3l-.37,29.2a52.78,52.78,0,0,1-18.5-13.45c-6.25-7-5.67-29.4-3.83-41.85A5.37,5.37,0,0,0,714,373.31c-.56,3.81-5.16,37.52,6.43,50.56a62.63,62.63,0,0,0,26.37,17.73L746.34,479c-17-2.83-16.53-37.59-16.52-37.95a5.38,5.38,0,0,0-5.21-5.52,5.48,5.48,0,0,0-5.52,5.2c-.06,1.92-1.06,46.44,27.11,49.05L746,502.38a5.36,5.36,0,0,0,5.3,5.43h.07a5.36,5.36,0,0,0,5.36-5.3l.44-34.9c.18-.07.36-.11.54-.2,1.17-.62,28.75-15.22,35.83-32.22,6.68-16,4.53-79.76,4.26-87A5.35,5.35,0,0,0,792.28,343.07Z"/><path class="cls-10" d="M964.11,396.92a3.56,3.56,0,0,0-2.77,4.2c0,.19,3.84,19.29-4.34,31.48a22.71,22.71,0,0,1-2.72,3.32c4-16.58.92-44.08.47-47.85a3.56,3.56,0,0,0-7.07.84c2,16.55,2.88,45.31-3.1,52a3.8,3.8,0,0,1-.73.63q-.71.18-1.44.33a1.78,1.78,0,0,1-1.07-.73c-5.75-6.86-2.67-38.71.61-57.18a3.56,3.56,0,1,0-7-1.25c-5.46,30.63-4.32,46.88-2.32,55.21-2.66-3.36-5.09-8.89-5.09-18V397a3.56,3.56,0,1,0-7.11,0v23c0,8.33,1.77,14.35,4.16,18.74l-.2-.14c-10.8-8.37-12.16-27.15-12.17-27.33a3.56,3.56,0,0,0-7.1.45c.06.9,1.56,22.13,14.89,32.48a26.23,26.23,0,0,0,16.53,5.5l.5,0a5.67,5.67,0,0,0,.59.17,3.34,3.34,0,0,0,.82.1,3.46,3.46,0,0,0,1.58-.43c1.09-.11,2.2-.27,3.34-.48l.06,0a8.69,8.69,0,0,0,2.77-.65,28.41,28.41,0,0,0,16.71-11.77c9.82-14.63,5.59-36,5.4-36.87A3.54,3.54,0,0,0,964.11,396.92Z"/><path class="cls-10" d="M1856.78,382.57a3.73,3.73,0,1,0-7.31,1.5c0,.2,4,20.24-4.55,33a23.17,23.17,0,0,1-2.86,3.47c4.18-17.39,1-46.23.49-50.19a3.73,3.73,0,1,0-7.41.88c2.07,17.36,3,47.54-3.25,54.61a3.6,3.6,0,0,1-.78.66l-1.5.35a2,2,0,0,1-1.13-.77c-6-7.19-2.8-40.62.65-60a3.73,3.73,0,1,0-7.35-1.31c-5.72,32.14-4.53,49.18-2.44,57.92-2.78-3.52-5.33-9.33-5.33-18.88v-24.1a3.73,3.73,0,1,0-7.46,0v24.1c0,8.74,1.86,15,4.37,19.65l-.21-.14c-11.33-8.78-12.77-28.48-12.78-28.68a3.73,3.73,0,0,0-7.45.48c.06.94,1.64,23.22,15.63,34.08a27.5,27.5,0,0,0,17.34,5.76l.52,0,.63.18a4.19,4.19,0,0,0,.85.1,3.61,3.61,0,0,0,1.67-.46c1.14-.11,2.31-.28,3.49-.5l.08,0a9.38,9.38,0,0,0,2.88-.67,29.84,29.84,0,0,0,17.55-12.36C1861.41,405.9,1857,383.51,1856.78,382.57Z"/><path class="cls-10" d="M475.49,486.22a3.91,3.91,0,0,0-3.05,4.61c.05.21,4.21,21.21-4.77,34.6a24,24,0,0,1-2.71,3.33,74.65,74.65,0,0,0,2.24-16.42,175.63,175.63,0,0,0-1.07-25.59,3.91,3.91,0,0,0-7.76,1c2.06,16.32,1.75,40.26-4.56,46.56-1.65-9.38-2.62-37.5-2.62-62.94a3.91,3.91,0,1,0-7.81,0c0,39.8,1.47,57,3,64.63-3.54-1.8-11.06-7.6-11.06-24.43a388.36,388.36,0,0,1,1.85-40.68,3.91,3.91,0,0,0-7.77-.91c-.08.65-1.9,16.41-1.9,41.59a49.91,49.91,0,0,0,1.62,13.15c-7.69-13.63-7.83-34.4-7.83-34.65a3.91,3.91,0,0,0-3.9-3.91h0a3.91,3.91,0,0,0-3.9,3.91c0,1.4.19,34.49,16.67,48.15a24.83,24.83,0,0,0,15.14,5.8c.61.21,1,.32,1.12.34a3.94,3.94,0,0,0,.9.1,3.81,3.81,0,0,0,1.85-.52,35,35,0,0,0,3.55-.48h.09c9.31-1.78,16.51-6.37,21.39-13.64,10.78-16.08,6.13-39.53,5.93-40.52A3.93,3.93,0,0,0,475.49,486.22Z"/><path class="cls-10" d="M1726.45,409.75a3.73,3.73,0,0,0-2.91,4.4c0,.21,4,20.32-4.57,33.06a23.51,23.51,0,0,1-2.58,3.16,71.17,71.17,0,0,0,2.14-15.68,164.53,164.53,0,0,0-1-24.43,3.73,3.73,0,0,0-7.4.94c2,15.57,1.68,38.43-4.35,44.45-1.58-9-2.5-35.81-2.5-60.1a3.73,3.73,0,0,0-7.46,0c0,38,1.4,54.41,2.85,61.72-3.39-1.73-10.57-7.27-10.57-23.33a369.51,369.51,0,0,1,1.77-38.84,3.74,3.74,0,0,0-7.42-.88,373.88,373.88,0,0,0-1.81,39.72,47.78,47.78,0,0,0,1.54,12.54c-7.33-13-7.47-32.84-7.47-33.08a3.73,3.73,0,0,0-3.73-3.73h0a3.74,3.74,0,0,0-3.73,3.74c0,1.34.18,32.93,15.92,46a23.76,23.76,0,0,0,14.45,5.54c.59.2,1,.3,1.07.33a4.29,4.29,0,0,0,.86.1,3.64,3.64,0,0,0,1.77-.51c1.11-.1,2.24-.23,3.39-.45h.07c8.9-1.7,15.78-6.08,20.44-13,10.29-15.35,5.85-37.74,5.66-38.68A3.73,3.73,0,0,0,1726.45,409.75Z"/></g></svg>