<svg id="OBJECTS" xmlns="http://www.w3.org/2000/svg" viewBox="0 0 4590.37 4704.46"><defs><style>.cls-1{fill:#54b3cd;}.cls-2{fill:#f0d7ae;}.cls-3{fill:#d2bc8b;}.cls-4{fill:#e0c59d;}.cls-5{fill:#fbcb9b;}.cls-6{fill:#daba8b;}.cls-7{fill:#c0a280;}.cls-8{fill:#e5d17f;}.cls-9{fill:#aa9643;}.cls-10{fill:#756523;}.cls-11{fill:#fce78c;}.cls-12{fill:#e6a529;}.cls-13{fill:#d38e20;}.cls-14{fill:#69472b;}.cls-15{fill:#c75529;}.cls-16{fill:#f78d37;}.cls-17{fill:#f2b26d;}.cls-18{fill:#ba6d38;}.cls-19{fill:#ffc274;}.cls-20{fill:#c9793a;}.cls-21{fill:#683a57;}.cls-22{fill:#7c466a;}.cls-23{fill:#c487b0;}.cls-24{fill:#15414c;}.cls-25{fill:#23566b;}.cls-26{fill:#317084;}.cls-27{fill:#fdfeff;}.cls-28{fill:#e6e7e8;}.cls-29{fill:#efefef;}.cls-30{fill:#7f8293;}.cls-31{fill:#c3c3c5;}.cls-32{fill:#104875;}.cls-33{fill:#00d567;}.cls-34{fill:#26c934;}.cls-35{fill:#eeecf1;}.cls-36{fill:#c5bfd1;}.cls-37{fill:#33aee5;}.cls-38{fill:#c2c4d0;}.cls-39{fill:#606060;}.cls-40{opacity:0.67;}.cls-41,.cls-42,.cls-46{fill:#ebfdff;}.cls-41{opacity:0.68;}.cls-42{opacity:0.69;}.cls-43{fill:#6e5a28;}.cls-44{fill:#54b74d;}.cls-45{fill:#2f7f4a;}</style></defs><title>planet</title><path class="cls-1" d="M4490.73,3357.34c6.59-15.76,17.56-30.17,19.34-47.16,4.29-40.89-45.63-78.06-30-116.1,13-31.66,64.29-38.67,68.48-72.63,1.54-12.49-4.4-24.56-10.18-35.75l-114.86-222.56-1.69,4.28c-69.64-15.19-141.57,5.51-209.41,27.36-136.83,44.07-286.2,98.08-356.07,223.7-45.52,81.83-48.3,179.62-69,270.93a687.31,687.31,0,0,1-150.44,296.81c-85.62,98.65-197.34,170.53-309,238.28-180.52,109.52-581.51,534.67-770,629.77,275.21,169.15,822.23-76.62,1143.84-107,16.69-115.48,104.87-217.53,216.72-250.78,24.73-7.36,52.14-12.6,69.34-31.84,41.44-46.33-7.22-134,38-176.64,12.25-11.56,29-16.75,45.15-21.58l154.09-46.14c-30.06-81-16.54-176.77,34.77-246.28a873.16,873.16,0,0,0,346.39,20.82C4628.83,3573.17,4443,3471.5,4490.73,3357.34Z" transform="translate(-389.9 -170.74)"/><path class="cls-1" d="M1534.3,2657.84c69.62-65.88,166.56-96.34,237.83-160.44,69.44-62.46,109-151.74,173.16-219.57,141.44-149.46,367.93-167.12,570.8-201.58,182.48-31,360.68-82.83,538.4-134.56,107.6-31.31,215.51-62.73,318.63-106.6q-10.8-58.59-21.62-117.18c76.44,54.39,146.34,116.93,207.08,189.09,65.61,78,127.34,162.33,156.76,259.88,5.69,18.89,10.78,39.26,25.22,52.7,10.45,9.73,24.47,14.47,38,18.92q346.8,113.74,701.47,201.31l-76.62-282.08c-38-2.68-71.65-27.55-94-58.38s-35.31-67.35-47.93-103.3c-20.94-59.65-42.19-122-34.17-184.7,1.13-8.81,2.76-18.19-.95-26.26-4.34-9.45-14.66-14.35-22.12-21.59-34.55-33.51,2.67-97.58-22.81-138.41-23.18-37.13-84.46-33.53-107.94-70.47-24.49-38.54,2.09-105.86-39.22-125.29-7.88-3.7-16.83-4.43-25.53-4.22-49.48,1.16-111.37,25.47-140.21-14.75-14-19.52-11.56-45.77-13.25-69.73s-12.62-52-36.32-55.88c-52.84,43.72-109.55,89.19-177.54,98.19-12.62,1.67-26.48,1.72-36.81-5.7-17-12.24-16.2-37.25-15.12-58.2a432.25,432.25,0,0,0-48.26-220.87c-59.86-1.1-117.59,48.45-174.44,29.63-18.88-6.25-34.59-19.45-52.43-28.23-59.28-29.17-115.58-3.35-174.61,8.75-56,11.48-109.72,18.14-164.92,36.79l-49.19,16.63c-143.15-44.92-299.47,28.21-447.14,1.66-33.76-6.07-69.69-17.11-101.15-3.43-14.67,6.37-26.6,17.54-39.05,27.58-233-17.11-339.19,34.15-339.19,34.15s-94.1,136.45-173.59,140.18c-80.65,3.78-157.75-44-238.18-36.93-13.61,1.19-27.7,4.24-38.2,13-7.6,6.33-12.71,15.17-16.47,24.32-29.08,70.66,14.5,161.5-30.1,223.55-17.15,23.87-46.31,41.18-51.49,70.12-3,17,3.21,34.09,7.1,50.93,17.57,76.06-17.73,161.41-83.89,202.84-23.33,14.6-50.6,24.75-67.68,46.32-16.85,21.27-19.78,46.6-17.31,73.54-35.81,33.59-70.46,70.06-104.55,99.38-29.94,25.74-61.13,53.31-73.87,90.68-16,47.12.75,99.31-7.43,148.42-15,90-105.08,143.73-182.52,192-14,8.71-29,19.39-32.09,35.57-5.91,31.43,33.66,48.6,61.43,64.45,49.21,28.09,78.18,87.93,69.68,144-5.37,35.41-23.88,67.36-33.85,101.75s-9.21,76.4,17.52,100.24c8.14,7.26,18.36,12.51,24.37,21.61,14.33,21.71-2.4,50.27-1.24,76.26.86,19.11,11.52,36.18,21.43,52.55a1086.14,1086.14,0,0,1,61.63,117.75c0,2.94-.09,5.88-.21,8.8-2,45.25-18.26,88.52-26.61,133s-7.42,94.53,20.66,130.07c33.49,42.39,95.38,52.07,132.71,91.12,50.51,52.83,39.33,137.27,24.76,208.9q-5.64,27.76-11.29,55.53c-9.88,48.56-19.81,97.94-15.52,147.32,2.08,24,7.51,47.92,5.71,72s-12.69,49.31-34.34,59.89c-18.71,9.14-47.63,11.47-49.22,32.24-1.12,14.59,14.12,24.63,27.68,30.17,83.94,34.27,178.2,26.06,268.8,22.32,41.19-1.71,87-.74,117.18,27.32,12.31,11.43,20.94,26.58,34.16,37,43.91,34.48,122.7,6.54,154.17,52.66,8.5,12.44,11.54,28.5,22.23,39.13,11,10.95,27.57,13.63,43,15.75l159.08,21.95c25.49,3.51,117.56,31.38,137.29,14.46,19.92-17.09-13.08-107.56-18-131.64q-15.36-75.11-30.73-150.2c-5.76-28.18-11.65-56.73-24.32-82.56-12.58-25.62-31.35-47.58-48.42-70.46-52-69.65-89.21-149.46-141.94-218.53-57.91-75.86-132.9-136.71-197.73-206.74-55.37-59.8-103.5-126.67-139.1-200-7.58-15.61-14.51-31.51-21.14-47.54,29.34-2.14,58.73-3.59,88.14-3.88,11.36-229.77-40.74-456.8-71.38-685.15C1521.52,2670.5,1527.76,2664,1534.3,2657.84Z" transform="translate(-389.9 -170.74)"/><path class="cls-2" d="M4494.12,3820.17q-202.26,309.6-425.55,604.76l53.48,21,367.38-515.4,24.23-34c6.95-9.75,23.23-25,26.14-36.68C4544.8,3840,4509.22,3828.94,4494.12,3820.17Z" transform="translate(-389.9 -170.74)"/><path class="cls-3" d="M4551.11,3830l-454.94,632.84c5,12.94,22.71,16.71,35.48,11.31s21.61-17,29.84-28.19l76.41-103.45q126.08-170.7,251.43-341.93c21.64-29.69,43.34-59.55,61.12-91.78,7.73-14,22.63-35.52,23.82-51.77C4575.62,3838.65,4568.34,3838.92,4551.11,3830Z" transform="translate(-389.9 -170.74)"/><path class="cls-2" d="M4107.21,4492.05a3448,3448,0,0,0,332.66-132.89c45.61-21,93.05-45,120.29-87.23,15.77-24.44,23.46-53.18,28.7-81.79,21.26-116.1,14-247.89-1.94-364.37-43.95,46.52-75.59,116.89-111.51,171q-57.36,86.37-117.77,170.66t-123.76,166.36q-31,40.11-62.65,79.69C4157.69,4430.38,4127.12,4485.27,4107.21,4492.05Z" transform="translate(-389.9 -170.74)"/><path class="cls-4" d="M4416.35,3898.45q-157-110-313.89-220.21c-2.79-2-5.74-4.18-6.72-7.41-1.23-4.14,1.21-8.43,3.61-12.06a263,263,0,0,1,16.48-22,273.16,273.16,0,0,1,34.27-34.51q150.76,106,301.65,212.1l-1.09-3.37c6.17,5.34,11,12.21,17.15,17.59-6.93,9.41-13.82,18.84-20.77,28.16l0,0a10.41,10.41,0,0,1-.7.94Q4431.32,3878.17,4416.35,3898.45Z" transform="translate(-389.9 -170.74)"/><path class="cls-2" d="M4416.35,3898.45q-157-110-313.89-220.21c-2.79-2-5.74-4.18-6.72-7.41-1.23-4.14,1.21-8.43,3.61-12.06a263,263,0,0,1,16.48-22,2380.49,2380.49,0,0,1,330.48,221Q4431.32,3878.17,4416.35,3898.45Z" transform="translate(-389.9 -170.74)"/><path class="cls-5" d="M4103.66,3673.3q21.24-29.34,42.47-58.67c2.78-3.84,5.63-7.82,6.59-12.46s-.51-10.13-4.65-12.43c-3.52-1.95-8.06-1.1-11.45,1.08s-5.86,5.48-8.27,8.72L4087.13,3655c-2.55,3.44-5.16,7-6.41,11.07s-.9,9,2,12.14c3.2,3.55,8.84,4.12,13.25,2.28S4103.66,3673.3,4103.66,3673.3Z" transform="translate(-389.9 -170.74)"/><path class="cls-2" d="M4085.46,3660.92l42.29-58.79c2.76-3.84,5.6-7.84,6.71-12.37s0-9.78-3.73-11.8c-3.18-1.73-7.44-.69-10.7,1.59s-5.71,5.58-8.1,8.82L4071,3644c-2.54,3.45-5.13,7-6.49,11s-1.27,8.71,1.25,11.65c2.8,3.28,8,3.57,12.21,1.58S4085.46,3660.92,4085.46,3660.92Z" transform="translate(-389.9 -170.74)"/><path class="cls-6" d="M4068.52,3649.41q21.15-29.4,42.29-58.79c2.77-3.84,5.61-7.84,6.72-12.37s0-9.78-3.73-11.81c-3.18-1.72-7.45-.68-10.7,1.59s-5.72,5.59-8.1,8.83l-41,55.62c-2.54,3.45-5.13,7-6.49,11s-1.27,8.7,1.25,11.65c2.81,3.28,8,3.56,12.21,1.58S4068.52,3649.41,4068.52,3649.41Z" transform="translate(-389.9 -170.74)"/><path class="cls-5" d="M4450.12,3814.28l-43.85,59.58c-2.14,2.91-4.34,6-5,9.53s.91,7.77,4.31,9c4.29,1.54,8.54-2.12,11.63-5.46,18.36-19.85,37-40.1,48.7-64.47-4.57-2.94-9.32-5.6-13.89-8.54Z" transform="translate(-389.9 -170.74)"/><path class="cls-7" d="M4485.49,3818.1l-61.35,84.12c-4,5.52-8.14,11.13-13.67,15.12s-12.83,6.18-19.31,4c-9-3-13.65-13.42-13.12-22.85.49-8.8,4.94-17.58,12.5-22.11s18.19-4,24.47,2.21l41.47-53.05c-10.92-.38-18.36-14.07-14-24.08s17.72-14.28,27.83-10.1,15.25,15.21,15.58,26.13Z" transform="translate(-389.9 -170.74)"/><path class="cls-4" d="M4310.55,4054.09q-157-110.06-313.9-220.22c-2.78-2-5.74-4.17-6.71-7.4-1.24-4.15,1.2-8.43,3.61-12.07a265,265,0,0,1,16.47-22,273.16,273.16,0,0,1,34.27-34.51Q4195.06,3864,4346,3970l-1.09-3.37c6.16,5.34,11,12.21,17.14,17.6-6.93,9.4-13.81,18.83-20.76,28.16l0,0a7.24,7.24,0,0,1-.71.94Q4325.52,4033.8,4310.55,4054.09Z" transform="translate(-389.9 -170.74)"/><path class="cls-2" d="M4310.55,4054.09q-157-110.06-313.9-220.22c-2.78-2-5.74-4.17-6.71-7.4-1.24-4.15,1.2-8.43,3.61-12.07a265,265,0,0,1,16.47-22,2379.83,2379.83,0,0,1,330.48,221Q4325.52,4033.8,4310.55,4054.09Z" transform="translate(-389.9 -170.74)"/><path class="cls-5" d="M3997.86,3828.93l42.47-58.67c2.78-3.83,5.62-7.82,6.58-12.46s-.5-10.13-4.64-12.42c-3.53-2-8.07-1.11-11.45,1.07s-5.87,5.49-8.27,8.72l-41.22,55.45c-2.56,3.44-5.16,7-6.41,11.07s-.91,9,2,12.14c3.2,3.55,8.83,4.12,13.25,2.28S3997.86,3828.93,3997.86,3828.93Z" transform="translate(-389.9 -170.74)"/><path class="cls-2" d="M3979.65,3816.56l42.29-58.79c2.77-3.85,5.61-7.84,6.72-12.38s0-9.77-3.73-11.8c-3.18-1.72-7.45-.68-10.7,1.59s-5.71,5.58-8.1,8.83l-41,55.62c-2.54,3.45-5.13,7-6.49,11s-1.26,8.71,1.25,11.66c2.81,3.28,8,3.56,12.21,1.58S3979.65,3816.56,3979.65,3816.56Z" transform="translate(-389.9 -170.74)"/><path class="cls-6" d="M3962.72,3805q21.15-29.39,42.29-58.79c2.77-3.84,5.6-7.84,6.71-12.37s0-9.78-3.73-11.8c-3.18-1.73-7.44-.68-10.69,1.59s-5.72,5.58-8.11,8.82l-41,55.62c-2.54,3.45-5.13,7-6.49,11s-1.27,8.71,1.25,11.65c2.8,3.29,8,3.57,12.21,1.58S3962.72,3805,3962.72,3805Z" transform="translate(-389.9 -170.74)"/><path class="cls-5" d="M4344.31,3969.92l-43.84,59.58c-2.14,2.91-4.35,6-5,9.52s.92,7.77,4.32,9c4.28,1.55,8.53-2.12,11.63-5.46,18.35-19.85,37-40.1,48.7-64.47-4.58-2.94-9.33-5.6-13.9-8.54Z" transform="translate(-389.9 -170.74)"/><path class="cls-7" d="M4379.69,3973.73l-61.35,84.12c-4,5.52-8.14,11.13-13.68,15.13s-12.82,6.17-19.3,4c-9-3-13.65-13.42-13.13-22.86.49-8.8,5-17.58,12.51-22.1s18.19-4,24.47,2.2q20.73-26.52,41.47-53c-10.93-.38-18.37-14.06-14-24.08s17.73-14.27,27.83-10.1,15.26,15.21,15.58,26.14Z" transform="translate(-389.9 -170.74)"/><path class="cls-4" d="M4192.12,4228.29q-157-110.05-313.89-220.22c-2.79-2-5.74-4.17-6.72-7.4-1.23-4.15,1.21-8.43,3.61-12.07a262.87,262.87,0,0,1,16.48-21.95,272.41,272.41,0,0,1,34.26-34.51q150.78,106,301.66,212.09l-1.09-3.37c6.17,5.34,11,12.22,17.15,17.6-6.94,9.4-13.82,18.83-20.77,28.16l0,0a8.19,8.19,0,0,1-.7.94Q4207.1,4208,4192.12,4228.29Z" transform="translate(-389.9 -170.74)"/><path class="cls-2" d="M4192.12,4228.29q-157-110.05-313.89-220.22c-2.79-2-5.74-4.17-6.72-7.4-1.23-4.15,1.21-8.43,3.61-12.07a262.87,262.87,0,0,1,16.48-21.95,2381.32,2381.32,0,0,1,330.48,221Q4207.1,4208,4192.12,4228.29Z" transform="translate(-389.9 -170.74)"/><path class="cls-5" d="M3879.43,4003.13l42.47-58.66c2.78-3.84,5.63-7.83,6.58-12.47s-.5-10.13-4.64-12.42c-3.52-2-8.06-1.1-11.45,1.08s-5.87,5.48-8.27,8.71l-41.22,55.45c-2.56,3.45-5.16,7-6.41,11.07s-.91,9,2,12.14c3.2,3.55,8.84,4.12,13.25,2.29S3879.43,4003.13,3879.43,4003.13Z" transform="translate(-389.9 -170.74)"/><path class="cls-2" d="M3861.23,3990.76q21.14-29.4,42.29-58.79c2.76-3.85,5.6-7.84,6.71-12.37s0-9.78-3.73-11.81c-3.18-1.72-7.44-.68-10.7,1.59s-5.71,5.59-8.1,8.83l-41,55.62c-2.55,3.45-5.13,7-6.49,11s-1.27,8.71,1.24,11.66c2.81,3.28,8,3.56,12.21,1.58S3861.23,3990.76,3861.23,3990.76Z" transform="translate(-389.9 -170.74)"/><path class="cls-6" d="M3844.29,3979.24q21.15-29.38,42.29-58.79c2.77-3.84,5.6-7.83,6.72-12.37s0-9.77-3.73-11.8c-3.18-1.72-7.45-.68-10.7,1.59s-5.72,5.58-8.1,8.82l-41,55.63c-2.54,3.45-5.13,7-6.49,11s-1.27,8.71,1.25,11.65c2.8,3.29,8,3.57,12.21,1.58S3844.29,3979.24,3844.29,3979.24Z" transform="translate(-389.9 -170.74)"/><path class="cls-5" d="M4225.89,4144.12,4182,4203.7c-2.14,2.91-4.34,6-4.95,9.52s.91,7.77,4.31,9c4.28,1.55,8.54-2.11,11.63-5.46,18.35-19.85,37-40.1,48.7-64.46-4.57-2.94-9.32-5.61-13.9-8.55Z" transform="translate(-389.9 -170.74)"/><path class="cls-7" d="M4261.26,4147.93l-61.35,84.12c-4,5.52-8.14,11.13-13.67,15.13s-12.83,6.18-19.31,4c-9-3-13.65-13.42-13.12-22.85.49-8.8,4.94-17.59,12.5-22.11s18.19-4,24.47,2.2q20.74-26.52,41.47-53c-10.92-.38-18.36-14.06-14-24.07s17.72-14.28,27.82-10.11,15.26,15.21,15.59,26.14Z" transform="translate(-389.9 -170.74)"/><path class="cls-4" d="M4088.48,4380.74q-157-110-313.9-220.21c-2.78-2-5.74-4.18-6.71-7.41-1.24-4.14,1.2-8.43,3.61-12.06a265.12,265.12,0,0,1,16.47-22,273.82,273.82,0,0,1,34.27-34.51q150.77,106,301.66,212.1l-1.09-3.37c6.16,5.34,11,12.21,17.14,17.59-6.93,9.41-13.81,18.84-20.76,28.16l0,.05a8,8,0,0,1-.71.94Q4103.45,4360.46,4088.48,4380.74Z" transform="translate(-389.9 -170.74)"/><path class="cls-2" d="M4088.48,4380.74q-157-110-313.9-220.21c-2.78-2-5.74-4.18-6.71-7.41-1.24-4.14,1.2-8.43,3.61-12.06a265.12,265.12,0,0,1,16.47-22,2379.9,2379.9,0,0,1,330.48,221Q4103.45,4360.46,4088.48,4380.74Z" transform="translate(-389.9 -170.74)"/><path class="cls-5" d="M3775.79,4155.59q21.23-29.34,42.47-58.67c2.78-3.83,5.62-7.82,6.58-12.46s-.5-10.13-4.64-12.43c-3.53-2-8.07-1.1-11.45,1.08s-5.87,5.48-8.27,8.72l-41.22,55.45c-2.56,3.44-5.16,7-6.41,11.07s-.91,8.95,2,12.14c3.2,3.55,8.83,4.12,13.25,2.28S3775.79,4155.59,3775.79,4155.59Z" transform="translate(-389.9 -170.74)"/><path class="cls-2" d="M3757.58,4143.21q21.15-29.39,42.29-58.79c2.77-3.84,5.61-7.84,6.72-12.37s0-9.78-3.73-11.8c-3.18-1.73-7.45-.69-10.7,1.58s-5.71,5.59-8.1,8.83l-41,55.62c-2.54,3.45-5.13,7-6.49,11s-1.26,8.71,1.25,11.65c2.81,3.28,8,3.57,12.21,1.58S3757.58,4143.21,3757.58,4143.21Z" transform="translate(-389.9 -170.74)"/><path class="cls-6" d="M3740.65,4131.7l42.29-58.79c2.77-3.84,5.6-7.84,6.71-12.37s0-9.78-3.73-11.81c-3.18-1.72-7.44-.68-10.69,1.59s-5.72,5.59-8.11,8.83l-41,55.62c-2.54,3.45-5.13,7-6.49,11s-1.27,8.7,1.25,11.65c2.8,3.28,8,3.56,12.21,1.58S3740.65,4131.7,3740.65,4131.7Z" transform="translate(-389.9 -170.74)"/><path class="cls-5" d="M4122.24,4296.57l-43.84,59.58c-2.14,2.91-4.35,6-5,9.53s.92,7.77,4.32,9c4.28,1.54,8.53-2.12,11.63-5.46,18.35-19.85,37-40.1,48.7-64.47-4.58-2.94-9.33-5.6-13.9-8.54Z" transform="translate(-389.9 -170.74)"/><path class="cls-7" d="M4157.62,4300.39l-61.35,84.12c-4,5.52-8.14,11.13-13.68,15.12s-12.82,6.18-19.3,4c-9-3-13.65-13.42-13.13-22.85.49-8.8,5-17.58,12.51-22.11s18.19-4,24.47,2.21q20.73-26.53,41.47-53c-10.93-.38-18.37-14.07-14-24.08s17.73-14.28,27.83-10.1,15.26,15.21,15.58,26.13Z" transform="translate(-389.9 -170.74)"/><path class="cls-2" d="M3712,4133.44c-5.62,8.21-14.95,17.54-23.87,13.12-10.42-5.16-6-21.08.52-30.74,130.36-194.13,260.27-389.56,397.52-578.4,5.5-7.56,11.08-16.92,20.37-17.93s18.93,11.3,13.09,18.6C4119.59,3538.09,3847.21,3935.69,3712,4133.44Z" transform="translate(-389.9 -170.74)"/><path class="cls-5" d="M3684.56,4114.82c-5.62,8.21-14.94,17.54-23.86,13.12-10.42-5.16-6-21.09.52-30.74,130.36-194.13,260.27-389.56,397.52-578.4,5.49-7.56,11.08-16.92,20.37-17.93s18.92,11.3,13.09,18.6C4092.2,3519.47,3819.82,3917.07,3684.56,4114.82Z" transform="translate(-389.9 -170.74)"/><path class="cls-6" d="M3657.17,4096.2c-5.62,8.21-14.94,17.53-23.86,13.12-10.42-5.16-6-21.09.51-30.74,130.37-194.13,260.28-389.56,397.53-578.4,5.49-7.56,11.08-16.93,20.37-17.93s18.92,11.29,13.09,18.59C4064.81,3500.84,3792.43,3898.45,3657.17,4096.2Z" transform="translate(-389.9 -170.74)"/><path class="cls-3" d="M4514.62,4243.29l10.47-230.15-243.32,354.68s147-97.88,231.17-123Z" transform="translate(-389.9 -170.74)"/><path class="cls-8" d="M4594.88,1346.39c-1.86,1.29-3.79,2.51-5.73,3.73q-52.23,32-104.4,64.24c-5.31,3.29-10.82,6.66-17.06,7.3a43.7,43.7,0,0,1-33.17-11.83c-23.13-22.86-41.9-51.1-62.24-76.46-5.87-7.46-22.92-24.94-25.42-34s10.82-16.84,10.82-16.84a444.39,444.39,0,0,0,107.13-92.61l.08-.07c7-8.45,14.76-17.76,25.65-19.48,9.31-1.43,18.41,3.23,26.51,8.17a225.32,225.32,0,0,1,91.17,110.15c5.38,14.11,9.1,30.59,1.5,43.63C4606.21,1338.23,4600.69,1342.59,4594.88,1346.39Z" transform="translate(-389.9 -170.74)"/><path class="cls-9" d="M4513.1,1241.68c-1-8.62-8.6-15.55-17.06-17.52s-17.47.37-25.06,4.59-14,10.21-20.36,16.15l-43.91,41.1-2.22-.61c9.78,11,20.46,21.14,30.47,31.91l59.45-46.4C4504,1263.44,4514.52,1253.72,4513.1,1241.68Z" transform="translate(-389.9 -170.74)"/><path class="cls-9" d="M4551.76,1289.52c-8.25-2.72-17.43-1.22-25.37,2.3s-14.88,8.91-21.74,14.25l-47.44,37-2.15-.81c8.74,11.83,18.47,22.9,27.46,34.54l63.39-40.85c10.19-6.56,21.59-15.29,21.26-27.4C4566.93,1299.82,4560,1292.23,4551.76,1289.52Z" transform="translate(-389.9 -170.74)"/><path class="cls-10" d="M4538.27,1386.44a653.68,653.68,0,0,0-106.89-155.91c-9.47-10.23-21.14-20.54-34.93-19.72-9.18.55-24.18,9.47-30.52,20.57l4.4,2.52c5.37-9.43,18.85-17.58,26.42-18,11.77-.69,22.26,8.74,30.9,18.09.59.64,1.15,1.31,1.74,2l-32,35.18,3.75,3.4,31.61-34.77a649.66,649.66,0,0,1,48,60,333.67,333.67,0,0,1-39.81,26.82l2.51,4.4a336.78,336.78,0,0,0,40.24-27.1,648.53,648.53,0,0,1,50,84.84c2.24,4.59,4.21,9.07,3.67,13.37-.71,5.77-16.08,15.52-24.34,20.76-2.59,1.64-4.81,3-6.32,4.13l2.93,4.13c1.46-1,3.61-2.4,6.1-4,13.51-8.58,25.72-16.9,26.66-24.4C4543.13,1397,4540.87,1391.75,4538.27,1386.44Z" transform="translate(-389.9 -170.74)"/><path class="cls-10" d="M4522.35,1366.67a231.45,231.45,0,0,0-36.5,20.66l2.88,4.16a226.68,226.68,0,0,1,35.7-20.2Z" transform="translate(-389.9 -170.74)"/><path class="cls-10" d="M4635.21,1268.9a388.65,388.65,0,0,0-78.68-111.6c-5.52-5.46-11.55-10.93-19.42-12.58-8.75-1.79-18.57,1.63-26.24,9.24-6.66,6.6-11,15.24-14.73,22.86l4.53,2.26c3.78-7.63,7.7-15.51,13.76-21.52,5-5,13.29-9.62,21.64-7.87,6,1.24,11,5.52,15.66,10l-31.32,34.37,3.75,3.41,31.15-34.18a385.17,385.17,0,0,1,36,42l-33.6,34.6,7.23,3.29,2.1-4.6-.68-.32,28-28.84a383,383,0,0,1,30,49.08l-1.15-1.58-35.92,26.14,3,4.1,35.48-25.83c1.63,3.23,3.28,6.44,4.82,9.72,4,8.64,8.05,19.6,3.13,27.73-3.45,5.7-10.21,8.36-17.36,11.17-8.08,3.17-16.42,6.46-20.29,14.54l4.57,2.19c3-6.29,10.08-9.07,17.57-12s15.51-6.1,19.84-13.26C4644.25,1291.21,4639.79,1278.67,4635.21,1268.9Z" transform="translate(-389.9 -170.74)"/><path class="cls-11" d="M4439,1509.63q-339.78,259.89-679.49,520c-1.36,1.08-43-56.25-84.8-114.51-43-59.91-86.09-120.82-86.09-120.82s352.36-265.93,480.7-362.84q110.4-83.25,220.86-166.73c13.62-10.32,50-33.38,66.43-37.6,25.29-6.51,87,69.09,102,90.44.86,1.15,1.58,2.3,2.36,3.51,24.93,35.69,63.6,79.12,51.13,120.53C4503.29,1471.18,4463.59,1490.8,4439,1509.63Z" transform="translate(-389.9 -170.74)"/><path class="cls-11" d="M4594.88,1346.39c-19.18-67.07-67.46-125.54-130-156.58,7-8.45,14.76-17.76,25.65-19.48,9.31-1.43,18.41,3.23,26.51,8.17a225.32,225.32,0,0,1,91.17,110.15c5.38,14.11,9.1,30.59,1.5,43.63C4606.21,1338.23,4600.69,1342.59,4594.88,1346.39Z" transform="translate(-389.9 -170.74)"/><path class="cls-8" d="M4461,1321.06q-221.64,162.87-447.23,320.36c-108.85,76-220,198.55-339,273.68-43-59.91-86.09-120.82-86.09-120.82s352.36-265.93,480.7-362.84q110.4-83.25,220.86-166.73c13.62-10.32,50-33.38,66.43-37.6,25.29-6.51,87,69.09,102,90.44C4459.48,1318.7,4460.2,1319.85,4461,1321.06Z" transform="translate(-389.9 -170.74)"/><path class="cls-9" d="M4352.28,1282c3.67-3.64,9.86-12.75,9.8-17.92-.07-6.08-6-10.81-12.06-11.55s-12,1.52-17.55,4a189.23,189.23,0,0,0-67.43,51l22.82,28.87S4340.58,1293.59,4352.28,1282Z" transform="translate(-389.9 -170.74)"/><path class="cls-9" d="M4477.56,1409.25c-5.07-1-15.17,3.34-19.44,6.27-13.56,9.31-65.52,53.06-65.52,53.06l24.07,27.83a189.34,189.34,0,0,0,62.75-56.66c3.48-5,6.82-10.42,7.22-16.49S4483.52,1410.46,4477.56,1409.25Z" transform="translate(-389.9 -170.74)"/><path class="cls-9" d="M4330.31,1387.25l22,29.47s53.85-41.41,65.85-52.67c3.78-3.54,10.2-12.48,10.28-17.65.1-6.08-5.73-11-11.75-11.87s-12,1.2-17.65,3.54A189.18,189.18,0,0,0,4330.31,1387.25Z" transform="translate(-389.9 -170.74)"/><path class="cls-9" d="M4433.17,1378.18a339.6,339.6,0,0,0-71.22,49.69l23.75,31.18s54.63-40.63,65.85-52.67C4476.27,1379.87,4450.52,1369.11,4433.17,1378.18Z" transform="translate(-389.9 -170.74)"/><path class="cls-9" d="M4298.45,1349.33l24.39,27.59s51.14-41.54,62.84-53.12c3.68-3.64,9.87-12.74,9.81-17.91-.07-6.08-6-10.83-12.06-11.55C4364.06,1292,4316.69,1327.54,4298.45,1349.33Z" transform="translate(-389.9 -170.74)"/><path class="cls-9" d="M4249.88,1365.11c3.68-3.64,9.87-12.75,9.81-17.92-.07-6.08-6-10.81-12.06-11.55s-12,1.52-17.55,4a189.15,189.15,0,0,0-67.43,51l22.81,28.87S4238.19,1376.68,4249.88,1365.11Z" transform="translate(-389.9 -170.74)"/><path class="cls-9" d="M4375.17,1492.34c-5.07-1-15.17,3.34-19.44,6.27-13.57,9.32-65.53,53.07-65.53,53.07l24.08,27.82a189.21,189.21,0,0,0,62.74-56.66c3.48-5,6.83-10.42,7.23-16.49S4381.13,1493.55,4375.17,1492.34Z" transform="translate(-389.9 -170.74)"/><path class="cls-9" d="M4315.8,1447.14c3.77-3.54,10.2-12.48,10.28-17.65.09-6.08-5.74-11-11.75-11.87s-12,1.2-17.65,3.54a189.21,189.21,0,0,0-68.76,49.18l22,29.47S4303.8,1458.4,4315.8,1447.14Z" transform="translate(-389.9 -170.74)"/><path class="cls-9" d="M4330.77,1461.27a339.8,339.8,0,0,0-71.21,49.69l23.75,31.18s54.62-40.63,65.85-52.67C4373.87,1463,4348.13,1452.21,4330.77,1461.27Z" transform="translate(-389.9 -170.74)"/><path class="cls-9" d="M4293.1,1389c-.07-6.08-6-10.83-12.06-11.55-19.38-2.33-66.74,33.2-85,55l24.4,27.59s51.14-41.54,62.84-53.12C4287,1403.25,4293.15,1394.15,4293.1,1389Z" transform="translate(-389.9 -170.74)"/><path class="cls-9" d="M4147.78,1448.49c3.68-3.64,9.86-12.74,9.8-17.92-.06-6.08-6-10.81-12.05-11.55s-12,1.52-17.56,4a189.32,189.32,0,0,0-67.43,51l22.82,28.87S4136.08,1460.06,4147.78,1448.49Z" transform="translate(-389.9 -170.74)"/><path class="cls-9" d="M4273.06,1575.72c-5.07-1-15.17,3.34-19.43,6.27-13.57,9.31-65.53,53.07-65.53,53.07l24.08,27.82a189.21,189.21,0,0,0,62.74-56.66c3.48-5,6.82-10.42,7.22-16.49S4279,1576.93,4273.06,1575.72Z" transform="translate(-389.9 -170.74)"/><path class="cls-9" d="M4213.7,1530.52c3.77-3.54,10.2-12.48,10.28-17.65.09-6.08-5.74-11-11.75-11.87s-12,1.2-17.65,3.54a189.13,189.13,0,0,0-68.77,49.18l22,29.47S4201.69,1541.78,4213.7,1530.52Z" transform="translate(-389.9 -170.74)"/><path class="cls-9" d="M4228.67,1544.65a339.54,339.54,0,0,0-71.21,49.69l23.75,31.18s54.62-40.63,65.84-52.67C4271.77,1546.34,4246,1535.59,4228.67,1544.65Z" transform="translate(-389.9 -170.74)"/><path class="cls-9" d="M4181.19,1490.27c3.67-3.64,9.86-12.74,9.8-17.91-.07-6.08-6-10.83-12.06-11.55-19.37-2.33-66.73,33.2-85,55l24.39,27.58S4169.49,1501.85,4181.19,1490.27Z" transform="translate(-389.9 -170.74)"/><path class="cls-9" d="M4039.44,1525.63c3.68-3.64,9.86-12.74,9.81-17.92-.07-6.07-6-10.8-12.06-11.55s-12,1.52-17.55,4a189.27,189.27,0,0,0-67.44,51L3975,1580S4027.74,1537.21,4039.44,1525.63Z" transform="translate(-389.9 -170.74)"/><path class="cls-9" d="M4164.73,1652.86c-5.08-1-15.18,3.34-19.44,6.27-13.57,9.32-65.53,53.07-65.53,53.07l24.08,27.82a189.11,189.11,0,0,0,62.74-56.66c3.48-5,6.82-10.42,7.23-16.49S4170.68,1654.07,4164.73,1652.86Z" transform="translate(-389.9 -170.74)"/><path class="cls-9" d="M4105.36,1607.66c3.77-3.54,10.2-12.48,10.28-17.65.09-6.08-5.74-11-11.75-11.86s-12,1.19-17.65,3.53a189.25,189.25,0,0,0-68.77,49.18l22,29.47S4093.35,1618.92,4105.36,1607.66Z" transform="translate(-389.9 -170.74)"/><path class="cls-9" d="M4120.33,1621.79a339.8,339.8,0,0,0-71.21,49.69l23.75,31.18s54.62-40.63,65.84-52.67C4163.43,1623.48,4137.69,1612.73,4120.33,1621.79Z" transform="translate(-389.9 -170.74)"/><path class="cls-9" d="M4072.85,1567.41c3.67-3.64,9.86-12.74,9.8-17.91-.07-6.08-6-10.83-12.06-11.55-19.37-2.33-66.73,33.2-85,55l24.39,27.58S4061.15,1579,4072.85,1567.41Z" transform="translate(-389.9 -170.74)"/><path class="cls-9" d="M3929.1,1611.12c3.68-3.64,9.87-12.74,9.81-17.92-.07-6.07-6-10.8-12.06-11.54s-12,1.51-17.55,4a189.15,189.15,0,0,0-67.43,51l22.81,28.87S3917.41,1622.7,3929.1,1611.12Z" transform="translate(-389.9 -170.74)"/><path class="cls-9" d="M4054.39,1738.35c-5.07-1-15.17,3.34-19.44,6.27-13.56,9.32-65.53,53.07-65.53,53.07l24.08,27.82a189.11,189.11,0,0,0,62.74-56.66c3.49-5,6.83-10.42,7.23-16.49S4060.35,1739.56,4054.39,1738.35Z" transform="translate(-389.9 -170.74)"/><path class="cls-9" d="M3995,1693.15c3.77-3.54,10.2-12.47,10.28-17.65.09-6.07-5.74-11-11.75-11.86s-12,1.19-17.65,3.53a189.21,189.21,0,0,0-68.76,49.18l22,29.47S3983,1704.41,3995,1693.15Z" transform="translate(-389.9 -170.74)"/><path class="cls-9" d="M4010,1707.28a339.6,339.6,0,0,0-71.22,49.69l23.75,31.18s54.63-40.63,65.85-52.67C4053.1,1709,4027.35,1698.22,4010,1707.28Z" transform="translate(-389.9 -170.74)"/><path class="cls-9" d="M3972.32,1635c-.07-6.08-6-10.83-12.06-11.55-19.37-2.32-66.74,33.21-85,55l24.4,27.58s51.14-41.54,62.84-53.12C3966.19,1649.27,3972.37,1640.16,3972.32,1635Z" transform="translate(-389.9 -170.74)"/><path class="cls-9" d="M3825.8,1675.93c-.06-6.08-6-10.81-12.06-11.55s-12,1.52-17.55,4a189.23,189.23,0,0,0-67.43,51l22.82,28.87s52.72-42.83,64.42-54.41C3819.68,1690.2,3825.86,1681.1,3825.8,1675.93Z" transform="translate(-389.9 -170.74)"/><path class="cls-9" d="M3941.28,1821.07c-5.07-1-15.17,3.34-19.43,6.27-13.57,9.32-65.53,53.07-65.53,53.07l24.08,27.83a189.24,189.24,0,0,0,62.74-56.67c3.48-5,6.82-10.42,7.22-16.48S3947.24,1822.28,3941.28,1821.07Z" transform="translate(-389.9 -170.74)"/><path class="cls-9" d="M3892.19,1758.22c.1-6.07-5.73-11-11.74-11.86s-12,1.2-17.65,3.53a189.25,189.25,0,0,0-68.77,49.18l22,29.47s53.84-41.41,65.85-52.67C3885.69,1772.33,3892.12,1763.4,3892.19,1758.22Z" transform="translate(-389.9 -170.74)"/><path class="cls-9" d="M3896.89,1790a339.92,339.92,0,0,0-71.21,49.69l23.74,31.19s54.63-40.64,65.85-52.67C3940,1791.69,3914.24,1780.94,3896.89,1790Z" transform="translate(-389.9 -170.74)"/><path class="cls-9" d="M3859.21,1717.71c-.07-6.08-6-10.82-12.06-11.55-19.37-2.32-66.73,33.21-85,55l24.39,27.59s51.15-41.55,62.85-53.12C3853.08,1732,3859.27,1722.88,3859.21,1717.71Z" transform="translate(-389.9 -170.74)"/><path class="cls-8" d="M4471.09,1316.55c-.15-.86-.22-1.79-.36-2.65.36-.21.64-.5,1-.71Z" transform="translate(-389.9 -170.74)"/><path class="cls-12" d="M964.85,1999.77c-5.19,12.55-10.46,25.23-17.26,36.94a120.22,120.22,0,0,1-12.91,18.45c-9.87,11.59-31.39,29.22-48.22,25.94-15.89-3.12-33.42-31.53-43.63-43.79a714.85,714.85,0,0,1-77-111.76c-1-1.73-2-3.58-3-5.43a917.77,917.77,0,0,1,173.37,16.58c11.43,2.12,23.83,5.18,30.9,14.4C977.47,1964.68,971.24,1984,964.85,1999.77Z" transform="translate(-389.9 -170.74)"/><path class="cls-13" d="M947.59,2036.71a120.22,120.22,0,0,1-12.91,18.45c-9.87,11.59-31.39,29.22-48.22,25.94-15.89-3.12-33.42-31.53-43.63-43.79a714.85,714.85,0,0,1-77-111.76Q856.73,1981.08,947.59,2036.71Z" transform="translate(-389.9 -170.74)"/><path class="cls-14" d="M1654.59,1479.64c-4.82,7.37-9.52,14.82-14.33,22.21-10.77,2.26-23.75,10.61-33.31,14.44-94,37.61-195.64,40.53-292.9,15-11-3.2-22.29-6.87-33.76-6s-23.4,7.43-26.58,18.48c57.93,46.11,138.54,52.82,212.54,50.08,31.13-1.15,94.75-20.2,140.55-40.06q-260.7,405.32-489.3,830.1c-4.1-50.2-18.3-118.21-32.63-146.91-24.43-48.9-55.14-98.44-97-132.61A5992.26,5992.26,0,0,0,1291.75,1585l-30-15.16q-163.35,250-303,514.49a189.5,189.5,0,0,0-19.81-9.89c-8.16,8.1-8.23,21.74-3.46,32.2s13.38,18.57,21.49,26.73c69.07,73.08,115.28,163.68,127.35,264.19,1.37,11.42-.17,29.31,4.63,39.63-7.28,13.7-14.7,27.32-21.93,41l1,5.73,56.88,28a11518.47,11518.47,0,0,0,587.27-1003.16Z" transform="translate(-389.9 -170.74)"/><path class="cls-12" d="M1240,1535.81c-3.61,8.76-7.31,17.66-11.52,26.2a138,138,0,0,1-18.65,29.18c-9.87,11.59-31.38,29.22-48.21,25.94-15.9-3.11-33.42-31.53-43.64-43.79a728,728,0,0,1-80-117.19,918,918,0,0,1,173.38,16.59c11.43,2.11,23.82,5.18,30.89,14.39C1252.6,1500.72,1246.49,1520,1240,1535.81Z" transform="translate(-389.9 -170.74)"/><path class="cls-15" d="M1355.06,2373.55c-150.27-85-484.15-290.59-484.15-290.59s67.29-117,94.11-156.78l443.12,253.39c18.49,10.57,38.15,22.41,46.65,41.94,11.1,25.49,1.77,55.8-12,80C1389.45,2395.14,1355.06,2373.55,1355.06,2373.55Z" transform="translate(-389.9 -170.74)"/><path class="cls-16" d="M939.27,2044.09c-8.63-.35-17.25,10.6-14.87,18.77,2.46,8.47,25.36,18.6,32.49,23.42,3.05,2.07,6.3,4.2,10,4.39,5.12.27,9.78-3.43,12.18-8s3-9.75,3.6-14.84l-33.64-20C946,2046.08,942.78,2044.23,939.27,2044.09Z" transform="translate(-389.9 -170.74)"/><path class="cls-16" d="M1011,2028.9c2.41-4.52,3-9.75,3.6-14.84l-33.64-20c-3-1.8-6.22-3.65-9.73-3.79-8.63-.35-17.25,10.6-14.87,18.77,2.46,8.47,25.36,18.6,32.49,23.42,3.05,2.06,6.3,4.2,10,4.39C1003.89,2037.13,1008.55,2033.42,1011,2028.9Z" transform="translate(-389.9 -170.74)"/><path class="cls-16" d="M1018.19,2090.89c-8.63-.34-17.25,10.6-14.87,18.77,2.46,8.47,25.37,18.6,32.49,23.42,3,2.07,6.3,4.2,10,4.4,5.12.26,9.78-3.44,12.19-8s3-9.75,3.59-14.84l-33.64-20C1024.89,2092.88,1021.7,2091,1018.19,2090.89Z" transform="translate(-389.9 -170.74)"/><path class="cls-16" d="M1089.88,2075.71c2.41-4.52,3-9.75,3.59-14.84l-33.64-20c-3-1.8-6.21-3.65-9.73-3.79-8.63-.34-17.25,10.6-14.87,18.77,2.46,8.47,25.37,18.6,32.49,23.42,3,2.07,6.3,4.2,10,4.4C1082.81,2083.93,1087.47,2080.23,1089.88,2075.71Z" transform="translate(-389.9 -170.74)"/><path class="cls-16" d="M1097.11,2137.7c-8.63-.35-17.25,10.59-14.87,18.76,2.47,8.47,25.37,18.6,32.5,23.43,3,2.06,6.29,4.19,10,4.39,5.11.27,9.77-3.44,12.18-8s3-9.75,3.6-14.84l-33.65-20C1103.82,2139.69,1100.63,2137.84,1097.11,2137.7Z" transform="translate(-389.9 -170.74)"/><path class="cls-16" d="M1168.8,2122.51c2.41-4.52,3-9.75,3.59-14.84l-33.64-20c-3-1.8-6.21-3.64-9.73-3.79-8.63-.34-17.25,10.6-14.87,18.77,2.46,8.47,25.37,18.6,32.5,23.43,3,2.06,6.29,4.19,10,4.39C1161.73,2130.74,1166.39,2127,1168.8,2122.51Z" transform="translate(-389.9 -170.74)"/><path class="cls-16" d="M1176,2184.5c-8.62-.35-17.24,10.59-14.87,18.77,2.47,8.47,25.37,18.59,32.5,23.42,3,2.06,6.29,4.2,10,4.39,5.11.27,9.77-3.44,12.18-8s3-9.75,3.6-14.84l-33.65-20C1182.74,2186.49,1179.55,2184.64,1176,2184.5Z" transform="translate(-389.9 -170.74)"/><path class="cls-16" d="M1217.67,2134.47c-3-1.79-6.21-3.64-9.73-3.78-8.62-.35-17.24,10.59-14.87,18.77,2.47,8.47,25.37,18.59,32.5,23.42,3,2.06,6.29,4.2,10,4.39,5.11.27,9.77-3.44,12.18-8s3-9.75,3.6-14.84Z" transform="translate(-389.9 -170.74)"/><path class="cls-13" d="M1228.46,1562a138,138,0,0,1-18.65,29.18c-9.87,11.59-31.38,29.22-48.21,25.94-15.9-3.11-33.42-31.53-43.64-43.79a728,728,0,0,1-80-117.19C1101.56,1491.05,1164.85,1526.9,1228.46,1562Z" transform="translate(-389.9 -170.74)"/><path class="cls-15" d="M1630.2,1909.58c-150.27-85-484.15-290.59-484.15-290.59s67.29-117,94.11-156.78l443.12,253.39c18.48,10.57,38.14,22.41,46.65,41.94,11.1,25.5,2.19,56-12,80C1660.4,1934.52,1630.2,1909.58,1630.2,1909.58Z" transform="translate(-389.9 -170.74)"/><path class="cls-16" d="M1219.65,1572.7c-8.63-.34-17.25,10.6-14.87,18.77,2.46,8.47,25.36,18.6,32.49,23.42,3,2.07,6.3,4.2,10,4.39,5.12.27,9.78-3.43,12.18-8s3-9.76,3.6-14.84l-33.64-20C1226.35,1574.69,1223.16,1572.84,1219.65,1572.7Z" transform="translate(-389.9 -170.74)"/><path class="cls-16" d="M1291.33,1557.51c2.41-4.52,3-9.75,3.6-14.84l-33.64-20c-3-1.8-6.22-3.65-9.73-3.79-8.63-.35-17.25,10.59-14.87,18.77,2.46,8.47,25.37,18.6,32.49,23.42,3,2.07,6.3,4.2,10,4.39C1284.27,1565.74,1288.93,1562,1291.33,1557.51Z" transform="translate(-389.9 -170.74)"/><path class="cls-16" d="M1298.57,1619.5c-8.63-.34-17.25,10.6-14.87,18.77,2.46,8.47,25.37,18.6,32.49,23.43,3,2.06,6.3,4.19,10,4.39,5.12.26,9.78-3.44,12.19-8s3-9.75,3.59-14.84l-33.64-20C1305.27,1621.49,1302.09,1619.65,1298.57,1619.5Z" transform="translate(-389.9 -170.74)"/><path class="cls-16" d="M1370.26,1604.32c2.41-4.52,3-9.75,3.59-14.84l-33.64-20c-3-1.8-6.21-3.65-9.73-3.79-8.63-.34-17.25,10.6-14.87,18.77,2.46,8.47,25.37,18.6,32.49,23.43,3.05,2.06,6.3,4.19,10,4.38C1363.19,1612.54,1367.85,1608.84,1370.26,1604.32Z" transform="translate(-389.9 -170.74)"/><path class="cls-16" d="M1377.49,1666.31c-8.63-.35-17.25,10.59-14.87,18.76,2.47,8.47,25.37,18.6,32.5,23.43,3,2.06,6.29,4.19,10,4.39,5.11.27,9.77-3.44,12.18-8s3-9.75,3.6-14.84l-33.65-20C1384.2,1668.3,1381,1666.45,1377.49,1666.31Z" transform="translate(-389.9 -170.74)"/><path class="cls-16" d="M1449.18,1651.12c2.41-4.52,3-9.75,3.59-14.84l-33.64-20c-3-1.8-6.21-3.64-9.73-3.78-8.63-.35-17.25,10.59-14.87,18.76,2.47,8.47,25.37,18.6,32.5,23.43,3,2.06,6.29,4.19,10,4.39C1442.11,1659.35,1446.77,1655.64,1449.18,1651.12Z" transform="translate(-389.9 -170.74)"/><path class="cls-16" d="M1456.41,1713.11c-8.62-.35-17.24,10.59-14.87,18.77,2.47,8.47,25.37,18.59,32.5,23.42,3,2.06,6.3,4.2,10,4.39,5.11.27,9.77-3.44,12.18-8s3-9.75,3.6-14.84l-33.65-20C1463.12,1715.1,1459.93,1713.25,1456.41,1713.11Z" transform="translate(-389.9 -170.74)"/><path class="cls-16" d="M1498.05,1663.08c-3-1.79-6.21-3.64-9.73-3.78-8.62-.35-17.24,10.59-14.87,18.77,2.47,8.47,25.37,18.59,32.5,23.42,3,2.06,6.29,4.2,10,4.39,5.11.27,9.77-3.44,12.18-8s3-9.75,3.6-14.84Z" transform="translate(-389.9 -170.74)"/><path class="cls-17" d="M1915.22,4233.35C2084,4274.9,2391.15,4407.49,2575,4495.88c91.21,43.85,152.1,76.85,150.5,82.41-5.67,19.93-157.16,114.85-194.37,139q-110.19,71.34-215.09,153.26c-2,1.52-4.08,3.15-6.1,4.66C2142.19,4695,2059.2,4437.38,1915.22,4233.35Z" transform="translate(-389.9 -170.74)"/><path class="cls-18" d="M2310,4875.19c89.78-122.14,182.3-251.64,265.06-379.31,91.21,43.85,152.1,76.85,150.5,82.41-5.67,19.93-157.16,114.85-194.37,139C2457.68,4764.83,2379.76,4820.67,2310,4875.19Z" transform="translate(-389.9 -170.74)"/><path class="cls-19" d="M2083.93,4238.12q244,50.49,488,100.71c116.86,24.18,242.69,38.93,361.3,66.49,41.57,9.6,82.22,20.81,121.31,34.65-20.44,58.08-159.23,132.13-208.71,169.83-76.49,58.31-310.37,204.8-317.72,209.43l-.16.07s-54.85-64.71-65.49-78.52C2321.62,4559.1,2224.61,4419.87,2083.93,4238.12Z" transform="translate(-389.9 -170.74)"/><path class="cls-20" d="M2528.12,4819.23c132.75-139.74,271.27-275,405.12-413.91,41.57,9.6,82.22,20.81,121.31,34.65-20.44,58.08-159.23,132.13-208.71,169.83C2769.35,4668.11,2535.47,4814.6,2528.12,4819.23Z" transform="translate(-389.9 -170.74)"/><path class="cls-21" d="M3108.68,1506.36C2940.14,1189.42,2848.57,831.91,2843.91,473l-57.79-9.66c-.06.75-.06,1.51-.13,2.26-13.16,193.29-58.26,384.18-131.88,563.28-60.86,148.26-145,342.3-276.22,442.65,17.2,1.64,208.43,9.25,208.43,10.07,1.17-91,77.8-173.27,166.7-187.19a173.53,173.53,0,0,1,34.27-1.85c102.54,4.94,190.41,105.08,182,207.34Q3039,1503.14,3108.68,1506.36Zm-350.25-293.29c-57.43,1.58-106.17,2.88-106.17,2.88,66.63-170.46,136.95-352,151.07-534.49.07,3.08.14,6.17.2,9.25,4.73,178,26.39,354.91,97.75,518C2864.74,1210,2808.33,1211.63,2758.43,1213.07Z" transform="translate(-389.9 -170.74)"/><path class="cls-21" d="M2794.27,447q4.3-138.15,8.59-276.28,11.55,144.95,23.08,289.9c-13.13,1.35-27.46-4.74-34.67-15.79Z" transform="translate(-389.9 -170.74)"/><path class="cls-22" d="M2803.53,690.71c-.06-3.08-.13-6.17-.2-9.25-14.12,182.53-84.44,364-151.07,534.49,0,0,48.74-1.3,106.17-2.88q-3.18,40.71-5.41,81.29c-88.9,13.92-165.53,96.17-166.7,187.19,0-.82-191.23-8.43-208.43-10.07,131.26-100.35,215.36-294.39,276.22-442.65,73.62-179.1,118.72-370,131.88-563.28,8.84,11.38,16.45,18,17.27,33.31C2806.62,562.74,2806.21,626.69,2803.53,690.71Z" transform="translate(-389.9 -170.74)"/><path class="cls-23" d="M2537.71,1151.8c160.58,2.39,321.54-2.38,482.13,0,3.11,21.39-14,48.82-34.39,57.89s-43.71,9.43-66.24,9.64l-160.68,1.51c-24.74.23-73.2.18-107.75.11a111.2,111.2,0,0,1-73.81-28C2561.92,1179.59,2537.71,1151.8,2537.71,1151.8Z" transform="translate(-389.9 -170.74)"/><path class="cls-23" d="M2953.79,888.66c-25.6,26.1-50.85,61-85.84,71.54-17.37,5.25-102.76,1.95-126.31,2.25-41.19.51-80.18-40.37-96.46-68.65C2645.18,893.8,2857.92,891,2953.79,888.66Z" transform="translate(-389.9 -170.74)"/><path class="cls-23" d="M2765.39,479.94c.35,14.12,6.05,28.88,17.88,36.6,10.93,7.13,24.88,7.14,37.93,6.9,10-.18,21-.76,28.19-7.63,7.43-7.08,8.39-18.47,8.15-28.73a219.29,219.29,0,0,0-5.15-42.4c-1.69-7.6-3.91-15.36-8.88-21.34-5.33-6.41-13.28-10.1-21.32-12.26-13-3.48-26.78-1.45-39,4.32C2765.38,423.86,2765,465.82,2765.39,479.94Z" transform="translate(-389.9 -170.74)"/><path class="cls-24" d="M4974.89,2590.66a18.29,18.29,0,0,0-.21-2.56,14.55,14.55,0,0,0-.05-2.29C4974.71,2587.43,4974.8,2589,4974.89,2590.66Z" transform="translate(-389.9 -170.74)"/><path class="cls-25" d="M4258.74,3201.81q-14.07-84.07-25.64-168.6c-.09-1.11-.41-2.86-.7-5.06l-22.17-182.33q-13.81-129.66-21.86-259.91c-3-49.76-5.62-99.5-7.44-149.37-.29-4.69-.69-9.92-1.43-15.76-2.46-20.2-7.38-46.38-9.22-71.2-1.81-24.6-12.64-155.53-12.64-155.53s237.17,113.09,297.57,136.64q103.77,40.71,207.72,81.15,94.09,36.88,188.27,73.54c16.55,6.56,33.65,13.68,49.65,21.58l0,.11c-2.53,24.95-1.56,50.49-2.56,61.06-.31,3.22-.71,6.56-1,9.78a346.46,346.46,0,0,0-1.71,36.19c.37,24.76,5,48.73,19.73,69.38-8.1,6.91-16.33,13.72-24.64,20.09q-36.49,28.88-72.83,57.49-70.07,55.33-140.07,110.44Q4468.07,3036.58,4258.74,3201.81Z" transform="translate(-389.9 -170.74)"/><path class="cls-26" d="M4619.86,2528.7c-148.06-21.29-291.57-56-426.85-102.92-4.5-1.61-9-3.22-13.52-5-2.4-20.18-7.34-46.35-9.21-71.2,15-2.83,32.44-1.66,47.56.18q220.77,27.66,437.88,66.81l6-3.47c18.49,16,33.24,38.07,39,59.45s-6.91,48.31-34.63,56.16C4651.06,2532.94,4634.91,2530.94,4619.86,2528.7Z" transform="translate(-389.9 -170.74)"/><path class="cls-26" d="M4233.1,3033.21c-.09-1.11-.41-2.86-.7-5.06l-22.17-182.33c146.83-82.8,411.21-175.55,411.21-175.55C4655.33,2684,4684,2701,4688,2731s-11.49,62.25-40.59,84.4c-25.78,19.4-59.63,30.47-92.54,41.13C4453.75,2889,4242.93,3031.4,4233.1,3033.21Z" transform="translate(-389.9 -170.74)"/><path class="cls-27" d="M4677.8,2871.46c-15.94-14.77-27.48-33.56-36.68-52.75-3.91-7.73-7.21-15.53-10.34-23.07-11.92-29.37-24-59.69-19.39-91.13,2-12.81,6.51-25.37,11.42-37.89,6.58-17.15,13.43-34.14,14.17-51.57,1.47-30.17-15.62-58.58-14.68-88.87-.05-.38,0-.68,0-1,1.31-33.31,24.93-64.76,36.52-97.51a82.88,82.88,0,0,0,4.11-15.76q94.13,36.93,188.33,73.57c16.49,6.46,33.56,13.6,49.61,21.55v.1c-2.52,24.94-1.57,50.49-2.58,61.06-.34,3.21-.66,6.5-1,9.8a340.13,340.13,0,0,0-1.7,36.14c.35,24.76,5,48.77,19.69,69.35-8,7-16.36,13.73-24.59,20.18-24.34,19.19-48.56,38.36-72.92,57.45Q4747.88,2816.35,4677.8,2871.46Z" transform="translate(-389.9 -170.74)"/><path class="cls-28" d="M4897.31,2577.94q-106-15.12-209.62-36.87c-16.74-3.55-41.42-8.07-65.39-14.89-.05-.38,0-.68,0-1,1.31-33.31,24.93-64.76,36.52-97.51a82.88,82.88,0,0,0,4.11-15.76q94.13,36.93,188.33,73.57c16.49,6.46,33.56,13.6,49.61,21.55v.1c-2.52,24.94-1.57,50.49-2.58,61.06C4898,2571.35,4897.63,2574.64,4897.31,2577.94Z" transform="translate(-389.9 -170.74)"/><path class="cls-28" d="M4641.12,2818.71c-3.91-7.73-7.21-15.53-10.34-23.07-11.92-29.37-24-59.69-19.39-91.13,2-12.81,6.51-25.37,11.42-37.89,89.9-21.27,181-38.78,272.8-52.54.35,24.76,5,48.77,19.69,69.35-8,7-16.36,13.73-24.59,20.18-24.34,19.19-48.56,38.36-72.92,57.45-14.65,4.6-29.34,8.92-44.05,13.15C4728.66,2787.21,4683.07,2800.08,4641.12,2818.71Z" transform="translate(-389.9 -170.74)"/><path class="cls-27" d="M4974.63,2585.81c.08,1.62.16,3.14.05,2.29A14.55,14.55,0,0,0,4974.63,2585.81Z" transform="translate(-389.9 -170.74)"/><path class="cls-27" d="M908.58,3694.52Q965,3662,1021.36,3629.41l350.89-202.69c2.15-1.2,33.22,64.53,66.44,137.14,13.73,30.13,27.91,61.3,40.52,89.38,21.57,47.9,38.83,86.92,42.41,95.89,7.76,19.43,21.22,54.86,21.22,54.86s-69,28.46-89,36a16.73,16.73,0,0,0-2.24.86q-83.62,30.74-167.14,61.66-96.29,35.55-192.46,71c-22.75,8.42-46.38,16.91-70.48,14.69-34.42-3.36-62.93-28-85-54.71a360.16,360.16,0,0,1-69.82-134.82c-6.59-24-10.07-51.32,3.14-72.31C878.71,3712,894,3703,908.58,3694.52Z" transform="translate(-389.9 -170.74)"/><path class="cls-29" d="M908.58,3694.52Q965,3662,1021.36,3629.41c45.27,14.9,88.95,33.58,128.06,49.32a1564.75,1564.75,0,0,1,302.17,162.08q-83.62,30.74-167.14,61.66-96.29,35.55-192.46,71c-22.75,8.42-46.38,16.91-70.48,14.69-34.42-3.36-62.93-28-85-54.71a360.16,360.16,0,0,1-69.82-134.82c-6.59-24-10.07-51.32,3.14-72.31C878.71,3712,894,3703,908.58,3694.52Z" transform="translate(-389.9 -170.74)"/><path class="cls-26" d="M879.06,3637.94Q936,3758.5,993,3879q34.22,72.2,68.21,144.26l-5.76,2.59c-134.83-6.12-269.57-14.45-403.13-33.66,18.79-25.22,37.34-50.79,55.36-76.55A2861.18,2861.18,0,0,0,879.06,3637.94Z" transform="translate(-389.9 -170.74)"/><path class="cls-30" d="M1438.69,3563.92c13.75,30,27.89,61.26,40.56,89.34q-64.39,33.07-128.83,66.2c-11.58,6-23.46,12.07-36.36,14.22s-27.19-.12-36.73-9.11c-13.36-12.64-13.13-35-4.24-51.19s24.47-27.36,39.85-37.58C1353.19,3609.11,1395.56,3585.67,1438.69,3563.92Z" transform="translate(-389.9 -170.74)"/><path class="cls-25" d="M652.33,3992.23c18.79-25.22,37.34-50.79,55.36-76.55Q849.49,3891.58,993,3879q34.22,72.2,68.21,144.26l-5.76,2.59C920.63,4019.77,785.89,4011.44,652.33,3992.23Z" transform="translate(-389.9 -170.74)"/><path class="cls-31" d="M402.92,3698.28q171.75,55.16,343.31,110.5c-3.34,15.66-6.65,31.21-10,47-1,4.94-2.17,9.95-3.19,14.89l-.85,3.12q-173.08-42.22-342.25-99.07c1-5.64,2-11.32,2.87-17C396.29,3737.86,399.55,3718.05,402.92,3698.28Z" transform="translate(-389.9 -170.74)"/><path class="cls-30" d="M735.58,3858.62c.21-1,.42-1.91.61-2.86q-172.5-45.9-343.42-98.06c-.92,5.68-1.84,11.36-2.87,17q168.89,56.81,342.25,99.07l.85-3.12c.07-.34.15-.68.22-1,3.33.61,6.9.94,8.67,1.37q17.16,4.11,34.26,8.51,34.62,8.91,68.91,19l2.76-7.86A453.74,453.74,0,0,0,735.58,3858.62Z" transform="translate(-389.9 -170.74)"/><path class="cls-31" d="M1315.8,4016.83Q1147,3953.16,978.27,3889.75c-7.12,14.34-14.21,28.58-21.37,43-2.28,4.5-4.48,9.14-6.76,13.64l-1.27,3q161.77,74.64,329.58,135.37c2.7-5.06,5.51-10.08,8.32-15.1C1296.37,4051.94,1306.14,4034.4,1315.8,4016.83Z" transform="translate(-389.9 -170.74)"/><path class="cls-30" d="M956.9,3932.77c-.44.87-.86,1.75-1.3,2.62a453.93,453.93,0,0,0-107.78-44.76l-2.73,7.86q33.1,13.46,65.75,28,16.13,7.2,32.12,14.65c1.65.77,4.66,2.71,7.65,4.31-.16.32-.31.64-.47,1l-1.27,3q161.77,74.63,329.58,135.37c2.7-5.06,5.51-10.08,8.32-15.1Q1120.56,4004.23,956.9,3932.77Z" transform="translate(-389.9 -170.74)"/><path class="cls-31" d="M1046.69,3446.73q-55.17,171.75-110.5,343.32c-15.66-3.35-31.22-6.66-47-10-4.94-1-10-2.18-14.89-3.2l-3.12-.85q42.22-173.09,99.07-342.24c5.64,1,11.32,2,17,2.87C1007.11,3440.1,1026.92,3443.36,1046.69,3446.73Z" transform="translate(-389.9 -170.74)"/><path class="cls-30" d="M987.27,3436.59c-5.68-.92-11.36-1.85-17-2.87Q913.45,3602.59,871.2,3776l3.12.85,1,.22c-.6,3.33-.94,6.91-1.36,8.67q-4.11,17.18-8.51,34.27-8.91,34.61-19,68.91l7.86,2.75a454.22,454.22,0,0,0,32-112.23l2.86.61Q935.11,3607.5,987.27,3436.59Z" transform="translate(-389.9 -170.74)"/><path class="cls-31" d="M728.14,4359.62q63.66-168.78,127.08-337.54c-14.34-7.12-28.58-14.2-43-21.36-4.5-2.28-9.14-4.49-13.64-6.77l-3-1.27q-74.64,161.78-135.37,329.58c5.06,2.71,10.08,5.52,15.1,8.33C693,4340.18,710.57,4350,728.14,4359.62Z" transform="translate(-389.9 -170.74)"/><path class="cls-30" d="M854.34,3891.63l-7.87-2.73q-13.46,33.12-28,65.76-7.2,16.11-14.66,32.12c-.76,1.65-2.71,4.65-4.31,7.64l-.94-.47-3-1.27q-74.64,161.78-135.37,329.58c5.06,2.71,10.08,5.52,15.1,8.33q65.41-166.23,136.88-329.87c-.86-.44-1.74-.87-2.62-1.3A454.21,454.21,0,0,0,854.34,3891.63Z" transform="translate(-389.9 -170.74)"/><path class="cls-31" d="M840.66,3873.85a24.1,24.1,0,1,0,32.18,11.23A24.11,24.11,0,0,0,840.66,3873.85Z" transform="translate(-389.9 -170.74)"/><path class="cls-32" d="M4356.79,2924.74c0,181.78-30.63,356.46-87.12,519-6,17.76-12.54,35.29-19.42,52.83q-26.64,69.07-59.71,134.84c-14.64,29.41-30.18,58.37-46.61,86.56-10.21,17.54-20.75,35-31.63,51.94a1588,1588,0,0,1-625,567.87c-214.18,108.32-456.34,169.25-712.81,169.25-231.28,0-450.79-49.5-648.78-138.73-550.45-247.7-933.55-800.93-933.55-1443.6,0-49.28,2.22-98.11,6.66-146.16q4-44.45,10.54-88.12,8.16-54.93,20.09-108.76c156.59-708.93,788.94-1239.29,1545-1239.29a1589,1589,0,0,1,248.15,19.31c444.47,70,827.56,325,1067.61,683.85h.11c8.21,12.31,16.31,24.74,24.08,37.28l.11.11a1591.92,1591.92,0,0,1,94.89,173.69v.11C4304,2459.63,4356.79,2686,4356.79,2924.74Z" transform="translate(-389.9 -170.74)"/><path class="cls-33" d="M4209.36,2256.6v.1a57.17,57.17,0,0,1-36.36,9.6c-44.89-3.84-59.39-57.68-57.37-100.44,1.28-27.3,4.91-56.94-1.06-82.85A1576.76,1576.76,0,0,1,4209.36,2256.6Z" transform="translate(-389.9 -170.74)"/><path class="cls-33" d="M4090.22,2045.57c-48.72-16.65-105.1,23.19-122.74,72.91-18.42,52.49-6.66,110.31,5,164.69,11.43,54.49,22.31,112.53,2.22,164.36-28.19,72.8-114.31,129-98.55,205.2,5.55,26.74,23.42,49.38,31.41,75.46,9.21,31-4.11,75.36-44,67.14-23.64-4.77-40.39-25.19-44.28-48.94-5.44-32.62-51.05-78.79-77.57-51.71,24.19,62.15,48.61,126.18,46.83,192.77-2.22,82.23-54.6,170.35-147.6,168.13-26.64-.67-52.83,7.88-71.58,26.64-43.06,42.83-16,79.9,3.11,119,14.87,30.52,15.2,66.92-1.45,96.56-37.84,66.91-127.62,45.38-151.7-11-49.5,104.21,9.1,177.45,71.69,249.59-68.37-3.89-117.64-68.25-142.72-132-32-81.56-42.28-174.12-119.41-231.05-34.74-25.64-81.46-31.74-119-10.21-58,33.29-52.61,104.54-67.14,163.58s-87.9,119.86-130.4,56.15c-11.21-16.75-14.21-37.4-11.88-57.37,15.09-125.74-97.55-215.3-209.64-255.25-96.33-34.18-201.2-46.72-291.43-93.89,2.78,8.55,5.22,17.31,8.22,25.86,7.1,21,16.53,43.5,36.29,53.38,15.09,7.43,32.73,5.66,49.16,9,32.41,6.32,59.6,34.4,64.7,67s-11.76,67.59-40.51,83.79c-53.27,30-126.4-5-178.56,26.74-23,14.1-44.61,41.4-72,25.42-7.32-4.22-12.76-10.88-16.53-18.31-61.93-119.19-125.74-240.16-153-371.89-7.77-37.62-16.31-81.46-50.39-99.33-15.09-8-32.62-9.21-49.27-12.54s-34.29-10.54-42.5-25.3c-8.33-15-.78-38.4,16.2-39.84-22.42-23-60.48-28.86-89-13.76s-44.83,49.94-38.39,81.57c-36.41-5-62.71-38.07-77.36-71.81s-22.41-70.91-42.83-101.54c-20.2-30.63-59.49-53.94-93.56-40.07q41.12,62.92,82.35,125.74c9.76,14.76,19.86,33.74,8.43,49.17-8.66,11.76-25.75,14-38.62,6.65-26.19-14.75-30.3-43.83-41.39-68.58-31.52-69.69-130.4-97.88-193.88-55-41.29,27.63-64.81,77.12-108,101.65-42.06,23.86-102.1,15.32-129.62-23.86q8.16-54.93,20.09-108.76a60.76,60.76,0,0,1,23.19-9.32c36.74-6.1,83.46,15.87,102.21-25.19,6.33-13.76,6.11-29.41,2.33-44.17-16.2-63.37,34.19-120.08,92-140.72,51-18.31,107-14.65,161-11s110.09,6.55,160.8-12.87c60.71-23.09,106.65-77.36,127.3-138.84s17.86-129.4,0-191.88l1.33.22c-18.76-45.16-52.94-94.66-99.44-80.79-24.64,7.33-40.84,30.41-43.17,55.93-6.88,73.36,61.93,123.52,66.7,191.66,3.44,47-53.49,97.66-88.23,65.7-82-30.07-178.56-76.35-156.15-182.56,5.44-25.52,17.43-49.16,32.85-70.24,60.26-81.8,118.86-170.25,203.09-228.62,73.14-50.5,170.69-74.91,252.37-39.73,64.37,27.74,111.53,88.34,178.12,110.42,78.79,26.41,165.58-7.88,233.83-55.15s127.51-108.32,201.65-146c74.13-37.51,172.46-46.06,234.16,9.54,2-23.75,4.11-47.94,6.11-70.58,6.88-79.24,42.61-153.59,101.1-205.75C3467.08,1431.74,3850.17,1686.77,4090.22,2045.57Z" transform="translate(-389.9 -170.74)"/><path class="cls-33" d="M2264.35,3357.54C2187,3278,2139.49,3174.88,2075.94,3084s-154.29-174.76-265-182.22c-80.83-5.44-165.6,30.49-241,.64-46.38-18.34-80.18-58.65-122.83-84.45-72-43.61-161.44-42.23-245.57-39.56-1,0-1.81.1-2.77.1-4.48,48.09-6.72,96.93-6.72,146.19,0,642.65,383.12,1196,933.54,1443.64q37.26-35.34,74.42-70.69c20.58-19.51,41.69-40,51.82-66.32,19.62-51.29-7.14-107.27-14.07-161.65-15.14-120,66.86-228.61,148.11-318.07s171.45-186.28,178.39-306.88C2462.78,3489.33,2341.65,3437.08,2264.35,3357.54Z" transform="translate(-389.9 -170.74)"/><path class="cls-33" d="M3463.4,3636.77c1.62-9-3.17-17.85-8.14-25.54-54.48-84.36-154.61-137.13-255-134.39,7.44,23.53,35.8,31.29,57.72,42.65,35.6,18.46,59.57,52.79,86.11,82.85s61.42,55.64,101.52,54.83l-2.48-9.89C3450.31,3653,3461.78,3645.78,3463.4,3636.77Z" transform="translate(-389.9 -170.74)"/><path class="cls-33" d="M3513.46,3612.67c-7.71,3.2-15.84,11-12.37,18.62,1.21,2.63,3.61,4.5,6,6.11a70.16,70.16,0,0,0,43.49,11.56c9.58-.67,19.24-3.31,28.63-1.31,5.8,1.23,11.11,4.17,16.83,5.74,6.73,1.84,13.82,1.74,20.8,1.62l66.87-1.15c2.79,0,6.25-.56,7.12-3.21.94-2.87-2.08-5.44-4.85-6.67-15.33-6.78-34.85-2.37-48.18-12.54-4.4-3.35-7.83-8.14-12.92-10.32-12-5.14-24.42,6.59-37.39,8.18-13.33,1.64-25.3-7.54-35.59-16.17l2.35-2.44C3540.79,3607.12,3526.33,3607.34,3513.46,3612.67Z" transform="translate(-389.9 -170.74)"/><path class="cls-33" d="M3739.17,3394c.72-4.87-.13-11.21,4.28-13.39,4-2,9.59,1.36,12.81-1.67s0-8.43-3.92-10.05-8.58-1.33-12.34-3.37-7-10.39-3.12-12.17l-2.27-1.2c-12.72,1.81-21.48,13.2-29.51,23.24-21.81,27.26-48.13,50.51-74.31,73.62-7.56,6.66-16.22,13.74-26.29,13.26-5.15-.25-10.37-2.51-15.3-1-6.89,2.07-9.82,10.75-8.28,17.77s6.24,12.84,10.35,18.74,7.88,12.71,7.14,19.86c-.56,5.4-3.69,10.56-2.86,15.93,1.11,7.19,8.56,11.34,15.15,14.41,10.15,4.71,21.45,9.53,32.16,6.31,4.7-1.41,8.82-4.26,13.37-6.08s10.11-2.42,14.06.47c2.92,2.14,4.45,5.83,7.46,7.84,4,2.68,9.71,1.5,13.47-1.55s6-7.53,8-12a182.29,182.29,0,0,0,13.1-44c1.37-8.34,2.3-17.16,7.16-24.07,6.81-9.67,19.36-13,30.87-15.73-6.73-5.4-13.58-10.93-18.35-18.12s-7.25-16.44-4.38-24.59C3730.39,3408.43,3737.92,3402.37,3739.17,3394Z" transform="translate(-389.9 -170.74)"/><path class="cls-33" d="M3795.69,3457.26c9.78-2.93,20.14-3.05,30.26-4.32s20.59-4,28.06-10.91c2.53-2.36,4.74-5.41,4.88-8.87s-2.55-7.15-6-7c-2.89.1-5.05,2.58-7.05,4.68a45.29,45.29,0,0,1-38.09,13.44c-10.53-1.38-22-6.34-31.09-.84-7.2,4.36-9.56,13.52-11.3,21.76q-3.63,17.25-7.27,34.51c-2.13,10.12-4.27,20.3-4.54,30.64a169.42,169.42,0,0,0,1.1,20.25l2.82,30.14-.55,2.23c4.55,0,9.07,1.74,13.13-.29-5-8.76,2.11-19.31,3-29.36.46-5-.69-10-1.18-15.05s-.23-10.43,2.66-14.56,9.15-6.19,13.17-3.15c-1.95,6.33-3.91,12.77-3.94,19.39s2.18,13.57,7.29,17.79,13.42,4.74,18.1.07c5.82-5.81,3.66-15.69,0-23s-8.7-15-7.33-23.05,8.46-13.55,14.44-19.06,11.69-13.42,9.15-21.15c-7.88,3-12.91,10.51-18.32,17s-12.89,12.71-21.25,11.55c-10.1-1.4-15.76-14-12.55-23.71S3785.92,3460.2,3795.69,3457.26Z" transform="translate(-389.9 -170.74)"/><path class="cls-33" d="M4058.37,3762.09c-15.35-5.44-32.73-13-37.1-28.79-8.21-30.07,39-59.29,23.24-86.27-57-10.66-120.17,15.68-150,65.58-10.35,17.17-17.28,37.32-32.74,50.11s-44,12.48-51-6.39a224,224,0,0,0-71.33,110.25c-10.13-13.65-33.91-6.93-42.12,8-4.69,8.42-5.76,18-5.44,27.83-10.87,37.64-45.32,61.42-81.25,77.09-36.25,15.78-75.92,28.68-102.15,58.33-20.58,23.35-30.07,54.16-39,84-9.38,31.56-19,64.51-12.9,96.82,5.44,29.21,22.93,54.81,30.07,83.6a81.4,81.4,0,0,1,.64,35.5A1588.07,1588.07,0,0,0,4112.33,3770C4095.59,3773.39,4075.33,3768.06,4058.37,3762.09Z" transform="translate(-389.9 -170.74)"/><path class="cls-33" d="M4143.36,3702.05c.21,5.23.53,10.67.53,16q24.63-42.39,46.7-86.58-8.48-28-15.14-56.41A236,236,0,0,0,4143.36,3702.05Z" transform="translate(-389.9 -170.74)"/><path class="cls-33" d="M4262.14,3429.08q-16.95-34.07-33.8-68.34A243.87,243.87,0,0,1,4094,3342.93l-11.41-2.24c-16.32-5.65-31.78,13.22-39.56,28.58s-17.59,34.12-34.87,34.76c-12.47.42-22.6-9.17-33.59-15.25-25-14-59.5-8.21-78.58,13.22-15.69,32.49,10.46,63.81,61.61,55.8,0-13.33,18.79-21.89,30.94-16.13,12.37,5.75,23,16.63,36.58,16.84,15.88.32,29.75-14.18,45.42-11.94,13,1.92,21.64,14.93,25.06,27.62s3.41,26.34,8.1,38.6c6.19,16.42,21.11,29.53,38.49,32.09s36.15-6.61,43.61-22.39c4.59-9.38,5-20.15,7.68-30.17s9-20.48,19.09-22.82c16.21-3.84,26.76,13.11,37.75,27.08q10.23-26.23,19.4-52.78C4267.05,3438.89,4264.59,3434,4262.14,3429.08Z" transform="translate(-389.9 -170.74)"/><path class="cls-34" d="M2858.1,2274.45c-9.84-4.61-21.18,1.47-30,7.76-36.74,26.11-67.81,59.27-98.61,92.19-7.72,8.26-15.52,16.72-22.2,25.85q-90.74-30.09-182.12-58.18,59.07-214.58,139-422.69l-39.18-10.83a63.55,63.55,0,0,0-66.84,21.83c-23.89,30.22-61.42,77.71-100.86,127.59l-36.77-6.9a26.19,26.19,0,0,0-9.67,51.47l9.76,1.84-57,72.11-35.68-6.69a26.18,26.18,0,0,0-9.66,51.47l8.71,1.64c-12.71,16.32-25.07,33.07-35.3,50.85Q2217,2253,2142,2233.66c-32.17-8.32-64.63-16.48-97.81-18.25-13.87-.74-35.75,4.69-54,10.23a25.79,25.79,0,0,0-13.45,39.64c6.35,8.85,13.24,17.45,18.84,22a206.9,206.9,0,0,0,48.47,29.41c70.1,20.63,146.1,44.84,221.14,66.59.61,22.17,3.54,44.49,7,66.52l-29.24-5.49a26.19,26.19,0,1,0-9.66,51.48l46.08,8.64c2.37,21.27,5.13,47.11,8.53,75.34l-25.34-4.75a26.18,26.18,0,1,0-9.66,51.47l42.12,7.91c17.9,126.47,49.54,269.44,112.49,263.62,37.88-148,55.74-302.25,90.83-452.13l167.36,44.19c8.16,2.16,16.5,4.24,24.88,5.85,4.38,56.29,10.18,113.54,34.7,164.23l1-1.22c7.36,4.63,15.58,9,24,11.26s18,1.64,24.91-3.63c9.95-7.58,11.38-21.85,10.91-34.35-2-53.14-22.76-106.76-17.66-158.48l48.12,10.79c2.14.48,4.39.95,6.48.29s3.82-2.94,3.1-5a6.12,6.12,0,0,0-6.24-3.29l1.57-.32c-16.12-4.63-32.31-9-48.49-13.42a36.72,36.72,0,0,0,1.16-12.15c-.1-1.27-.3-2.47-.5-3.67,14.9-49.05,57.42-84.08,85.34-127.17,4.68-7.22,9.06-15,9.86-23.57S2865.89,2278.11,2858.1,2274.45Z" transform="translate(-389.9 -170.74)"/><path class="cls-35" d="M2532.16,2610.29c352,82.43,686.58,265.07,914.75,545.48s339.8,662.86,258.33,1015.08c-13.19-345.55-120.24-727.54-338.43-995.8s-546.31-421.29-881.92-504.59c9.76-17.63,24.55-35.64,34.32-53.28Z" transform="translate(-389.9 -170.74)"/><path class="cls-36" d="M2133.64,2817.66l-11.6,61.81-87.26-16.38a31.44,31.44,0,0,1-25.1-36.7h0a31.45,31.45,0,0,1,36.7-25.11Z" transform="translate(-389.9 -170.74)"/><path class="cls-36" d="M2323.29,2188.56l-11.6,61.81L2224.43,2234a31.46,31.46,0,0,1-25.11-36.71h0a31.44,31.44,0,0,1,36.71-25.1Z" transform="translate(-389.9 -170.74)"/><path class="cls-36" d="M2110.1,2660.71l-11.6,61.81-87.26-16.37a31.44,31.44,0,0,1-25.1-36.71h0a31.43,31.43,0,0,1,36.7-25.1Z" transform="translate(-389.9 -170.74)"/><path class="cls-36" d="M2212.12,2331.12l-11.6,61.81-87.26-16.37a31.44,31.44,0,0,1-25.1-36.71h0a31.44,31.44,0,0,1,36.7-25.1Z" transform="translate(-389.9 -170.74)"/><path class="cls-37" d="M2602,2903.51c-31.24-64.6-37.19-138.1-42.64-209.66-1.81-23.72-3.53-48.19,4-70.76,8.13-24.35,26.17-43.91,43.71-62.67,37-39.52,74.28-79.34,118.4-110.69,10.63-7.56,24.25-14.85,36.06-9.31,9.35,4.38,13.76,15.82,12.8,26.11s-6.22,19.63-11.84,28.3c-33.76,52.1-85.32,94.36-102.87,153.9-21.08,71.49,12.57,146.76,15.37,221.23.56,15-1.16,32.16-13.11,41.26-8.3,6.32-19.83,7-29.92,4.35s-19.95-8-28.78-13.52Z" transform="translate(-389.9 -170.74)"/><path class="cls-38" d="M2060,2664.06c-9.28-57.34-18-117-1.45-172.71,14.27-48.15,46.09-88.82,77.22-128.21l265.5-335.87a76.34,76.34,0,0,1,80.26-26.22l47,13a5449.4,5449.4,0,0,0-186.28,580c-51.1,196.16-72,400.15-121.87,595.09C2099.74,3200.28,2074.88,2755.9,2060,2664.06Z" transform="translate(-389.9 -170.74)"/><path class="cls-27" d="M1784,2491.09a248,248,0,0,1-58.2-35.31c-6.74-5.43-15-15.76-22.63-26.38a31,31,0,0,1,16.15-47.59c21.9-6.66,48.17-13.18,64.83-12.29,39.84,2.12,78.82,11.93,117.44,21.91q352,90.95,697.2,206.08c27.67,9.23,59.48,22.72,61.8,54.43,1.49,20.25-11.22,38.47-29.18,47.94-32.19,17-67.72,8.19-101-.59l-391.82-103.45C2020.86,2564.74,1896.15,2524.09,1784,2491.09Z" transform="translate(-389.9 -170.74)"/><path class="cls-37" d="M2717.46,2682.64q-81-23.26-162.81-43.34c-17.7-4.34-37.79-8.21-53.05,1.77,11.93,7.12,25.76,10.26,39.32,13.3l170.64,38.26c2.56.57,5.27,1.14,7.77.34s4.59-3.52,3.73-6a7.36,7.36,0,0,0-7.5-3.94Z" transform="translate(-389.9 -170.74)"/><path class="cls-39" d="M1754.79,2442.69a48.3,48.3,0,0,1,8.52-42.34c9.24-11.71,24.68-18.44,39.48-16.54-18.16,4.34-29.71,20.62-32.34,39.11-2.59,18.11-.39,44,10.79,55.91A64.53,64.53,0,0,1,1754.79,2442.69Z" transform="translate(-389.9 -170.74)"/><g class="cls-40"><path class="cls-27" d="M2324.49,823.29c-1.27-80.57,185.53-143.36,215-.1,13.12-30.64,45.95-56.85,99.2-39,50.36,16.92,54.69,70.61,46.86,102.41,4-30.13,46.22-48,80.82-36.79,34.49,11,55.86,43.67,56.84,74.25s-14.13,59.2-33.34,83.08a1255.33,1255.33,0,0,1,183.22,86.93c-317.36-91.93-670.77-79.78-976.45,20.06,47.21-31.26,105.25-55.62,151.57-87.69-39.19-19-64.32-49.39-62.36-91.18C2096.35,711,2274.59,754.83,2324.49,823.29Z" transform="translate(-389.9 -170.74)"/></g><path class="cls-41" d="M2098.59,4628.88c-8.69,20.81-137.86,40.44-125.55-48.29-18.43,12.5-45.89,13.79-63.78,3.1s-24.7-32-17-50.15c-21.82,9-49.46,3.5-62.93-12.31s-11.84-39.91,2.49-56.31c-13.19,1.54-26.45-4.84-31.83-15.22s-2.72-24,6-33.24c-15.47-4.93-27.7-16.5-32.74-30.76-3.51-9.86-3.44-21.57,2.8-30.94s19.58-15.05,28.82-10.41c12.27-14.26,33.76-16.71,49.53-10.63s27.45,19,39.08,31.35c.64-6.31,7.84-11,14.08-11.12s11.7,3,16.9,5.95c26.31,15.33,56.57,33.37,61.16,64.92,50.77-.2,99.1,26.63,121.6,69.82,22.33-14.32,128.23,5,139.43,57.67,27.7-8.4,55.78,16.34,44.93,41.65,15.57-2.28,31.49,2.42,38.25,13.48s2,28.41-12.24,37.27-35.35,5.37-38.71-7.2c5.11,18.08-64.66,31.89-70.26-3.2C2185.06,4662.74,2115.33,4668.4,2098.59,4628.88Z" transform="translate(-389.9 -170.74)"/><path class="cls-42" d="M1326.22,1428c-13.4-12.35,7.37-115.91,71.38-82-4.4-17.46,2.2-38.67,15.27-49.32s31.11-9.92,42.79,1c-.81-19.06,11-38.55,26.73-44.41s33.6,2,42.09,17.45c2.48-10.44,11-18.76,20.36-20s19,4.58,23.59,13.76c8-10.39,20.19-16.49,32.42-16.37,8.46.06,17.34,3.34,22.73,10.67s6,19,0,24.78c7.44,13.25,3.37,30.26-5.61,40.56s-22,15.6-34.62,21c4.62,2.23,6.18,9,4.56,13.77s-5.48,8.07-9.19,11.19c-18.92,15.75-41,33.76-66.22,28.53-13.88,38.62-47.61,67.93-86.64,73.09,4.71,20.92-39.23,96-82.34,90-1.27,23.36-27.83,37.86-44,22.63-2.57,12.45-10.55,23.25-20.82,25.33s-22.14-6.31-24.93-19.6,5.68-28.34,16.16-27.42c-15.14-1.11-6.36-57.94,21.85-52.49C1276.61,1484.3,1291.58,1429.76,1326.22,1428Z" transform="translate(-389.9 -170.74)"/><path class="cls-41" d="M4595.82,2239.9c6.78,20.35-.53,36.64-10.31,47.63s-22.32,19.09-30.58,31.7c24,4,44.14,40,39.92,65.74-3.82,25.67-23.68,39.42-44.13,44.46,15.58,12.81,10.93,40.55-2.05,52.52-12.8,12.15-30.18,17.09-43.13,28.51,20.2-79.65,17.38-174-18.09-268.83-3.65-23.45-59.6-122.88-63.62-122.08C4420.76,2115.12,4561.85,2137.29,4595.82,2239.9Z" transform="translate(-389.9 -170.74)"/><path class="cls-43" d="M3456.31,1425.57c2.07-2.88,4.24-5.86,7.33-7.61,7.49-4.27,17.73.9,21.13,8.82s1.41,17.2-2.44,24.91-9.41,14.44-13.65,21.94c-6.09,10.75-9.34,22.83-12.53,34.77l-14,52.23C3352.16,1559.85,3431.47,1460.21,3456.31,1425.57Z" transform="translate(-389.9 -170.74)"/><path class="cls-44" d="M3675.61,1382.63c-5.63,32.15-24.41,59.95-44.78,84.46-10.08,12.1-20.8,23.88-34.06,31.94-25.05,15.28-56.45,15.39-84.36,6.79-12.63-3.81-29.18-14.64-43.3-25.36-17.08-12.84-31-25.46-31-25.46-32.68-25.26-58.05-62.82-63.88-105s10.61-88.4,44.57-111.1c18.14-12,39.79-17,61.22-19.21,47.75-5.09,98.48,2.86,138.16,31.73a144,144,0,0,1,25.26,23.66C3668.29,1304.42,3682.29,1344.22,3675.61,1382.63Z" transform="translate(-389.9 -170.74)"/><path class="cls-45" d="M3643.46,1275c-14.12-.85-28.23-1.49-42.34-2.23-22.92-1.17-46.69-1.91-67.7,7.22-21.75,9.44-38.1,28.86-48,50.4s-13.8,45.31-16.45,68.87c-3,27-4,54.43.1,81.17-17.08-12.84-31-25.46-31-25.46-32.68-25.26-58.05-62.82-63.88-105s10.61-88.4,44.57-111.1c18.14-12,39.79-17,61.22-19.21,47.75-5.09,98.48,2.86,138.16,31.73A144,144,0,0,1,3643.46,1275Z" transform="translate(-389.9 -170.74)"/><path class="cls-43" d="M1180.06,3158.46c-3,.26-6.18.5-9-.53-7-2.5-9.29-12-6-18.68s10.42-10.5,17.58-12.29,14.65-1.91,21.9-3.32c10.4-2,20.08-6.64,29.63-11.21l41.79-20C1325.55,3151.52,1216.46,3155.35,1180.06,3158.46Z" transform="translate(-389.9 -170.74)"/><path class="cls-44" d="M1029.93,3039.52c24.08-14.25,52.65-17.5,80-17.88,13.5-.17,27.14.25,39.78,4.4,23.91,7.8,41.47,28.21,51.42,51.17,4.54,10.36,6.71,27.17,7.59,42.33,1.15,18.29.67,34.38.67,34.38,1.75,35.35-8.59,72.8-32.86,100.13s-63.49,42.32-97.2,32.85c-17.92-5.14-33.22-16.47-46.61-29.19-29.92-28.27-53-65.75-56.29-107.68a123.06,123.06,0,0,1,1.35-29.63C983.06,3087.85,1001.18,3056.56,1029.93,3039.52Z" transform="translate(-389.9 -170.74)"/><path class="cls-45" d="M977.75,3120.4c7.3,9.67,14.75,19.21,22.13,28.82,12,15.58,24.76,31.48,42.41,40.09,18.27,8.91,40,8.74,59.55,3.17s37.2-16.26,54-27.65c19.21-13.08,37.7-27.69,52.82-45.29,1.15,18.29.67,34.38.67,34.38,1.75,35.35-8.59,72.8-32.86,100.13s-63.49,42.32-97.2,32.85c-17.92-5.14-33.22-16.47-46.61-29.19-29.92-28.27-53-65.75-56.29-107.68A123.06,123.06,0,0,1,977.75,3120.4Z" transform="translate(-389.9 -170.74)"/><path class="cls-43" d="M1710.56,4127.23c-2.36,1.93-4.81,3.91-7.76,4.67-7.15,1.87-14.48-4.68-15.53-12s2.66-14.55,7.56-20.08,11-9.86,16.18-15.12c7.43-7.55,12.8-16.83,18.1-26q11.57-20.07,23.15-40.13C1826.62,4039.23,1738.82,4104.08,1710.56,4127.23Z" transform="translate(-389.9 -170.74)"/><path class="cls-44" d="M1519.48,4114c11.8-25.36,33.53-44.2,55.84-60,11-7.78,22.53-15.14,35.3-18.87,24.13-7.08,50.15-.19,71.34,13.13,9.61,6,20.9,18.61,30.2,30.62,11.29,14.43,20,28,20,28,21.44,28.17,34.08,64.91,29.53,101.16s-28.44,70.82-61.6,82.06c-17.68,5.9-36.71,5.21-54.95,2.29-40.66-6.4-80.88-24.26-107.31-57a123.19,123.19,0,0,1-15.65-25.2C1508.15,4180.39,1505.4,4144.33,1519.48,4114Z" transform="translate(-389.9 -170.74)"/><path class="cls-45" d="M1522.17,4210.24c11.5,3.84,23,7.5,34.55,11.26,18.72,6.06,38.23,12,57.65,9.07,20.11-3,38-15.42,50.91-31.06s21.49-34.44,28.92-53.35c8.46-21.65,15.44-44.16,18-67.22,11.29,14.43,20,28,20,28,21.44,28.17,34.08,64.91,29.53,101.16s-28.44,70.82-61.6,82.06c-17.68,5.9-36.71,5.21-54.95,2.29-40.66-6.4-80.88-24.26-107.31-57A123.19,123.19,0,0,1,1522.17,4210.24Z" transform="translate(-389.9 -170.74)"/><path class="cls-43" d="M3649.19,4279.56c.61,3,1.21,6.08.52,9-1.68,7.19-10.9,10.63-17.86,8.15s-11.64-9.14-14.25-16.05-3.59-14.32-5.83-21.36c-3.22-10.09-8.92-19.17-14.57-28.13l-24.71-39.2C3625.43,4135.86,3641.88,4243.76,3649.19,4279.56Z" transform="translate(-389.9 -170.74)"/><path class="cls-44" d="M3548.44,4442.46c-16.94-22.27-23.48-50.27-27-77.36-1.74-13.38-2.9-27-.24-40,5-24.65,23.21-44.46,44.87-57,9.76-5.71,26.21-9.82,41.17-12.45,18-3.26,34.06-4.64,34.06-4.64,34.91-5.84,73.31.09,103.26,21s49.4,58.16,43.89,92.74c-3,18.39-12.5,34.91-23.59,49.68-24.61,33-59.16,60.25-100.43,68.39a123,123,0,0,1-29.59,2.09C3601.88,4483.41,3568.7,4469,3548.44,4442.46Z" transform="translate(-389.9 -170.74)"/><path class="cls-45" d="M3634.82,4484.92c8.76-8.38,17.38-16.88,26.07-25.32,14.08-13.73,28.4-28.24,34.9-46.77,6.73-19.18,4-40.77-3.75-59.52s-20.46-35.07-33.72-50.46c-15.22-17.57-31.88-34.24-51.1-47.22,18-3.26,34.06-4.64,34.06-4.64,34.91-5.84,73.31.09,103.26,21s49.4,58.16,43.89,92.74c-3,18.39-12.5,34.91-23.59,49.68-24.61,33-59.16,60.25-100.43,68.39A123,123,0,0,1,3634.82,4484.92Z" transform="translate(-389.9 -170.74)"/><path class="cls-46" d="M4741.62,3587.72c21,30.67,74.83,37.43,96.23-14.44,24.95-2.49,50.37-20.85,60.93-59,6.23-22.74,4.19-42.29-2.72-57.34a83,83,0,0,0-1.55-20.12c34.48,9.27,77.83-11.34,85-71.57,5.67-51.56-21.56-81.27-51.74-87.32,4.42-6.63,7.24-15.45,7.31-26.39.13-23.21-12.05-36.83-26.13-40.89-6-19.28-17.76-32.7-31.79-40.15,0-1.58,0-3.13-.18-4.76-5.23-56.82-59-65.55-88.06-42.52-12.52-51.23-28-101.38-44.94-151.69,13.28,132.23,30.72,258.33,20,387.81a861.43,861.43,0,0,1-121.84,373.46C4674.86,3683.83,4707.8,3635.87,4741.62,3587.72Z" transform="translate(-389.9 -170.74)"/><path class="cls-46" d="M1499.53,4824.19c-12.62,30.24-200.38,58.78-182.49-70.2-26.79,18.17-66.7,20-92.71,4.51s-35.89-46.46-24.62-72.91c-31.72,13.09-71.9,5.1-91.48-17.88s-17.21-58,3.62-81.85c-19.17,2.24-38.45-7-46.27-22.12s-3.95-34.93,8.75-48.31c-22.49-7.17-40.26-24-47.58-44.73-5.1-14.32-5-31.35,4.07-45s28.45-21.88,41.89-15.14c17.83-20.72,49.06-24.29,72-15.44s39.89,27.6,56.8,45.57c.94-9.18,11.4-16,20.47-16.17s17,4.3,24.55,8.64c38.25,22.29,82.24,48.52,88.91,94.37,73.79-.29,144,38.71,176.75,101.48,32.46-20.81,186.4,7.27,202.68,83.83,40.25-12.21,81.07,23.76,65.3,60.54,22.63-3.32,45.77,3.53,55.61,19.6s2.93,41.3-17.81,54.18-51.38,7.8-56.26-10.47c7.43,26.28-94,46.35-102.13-4.65C1625.23,4873.41,1523.87,4881.62,1499.53,4824.19Z" transform="translate(-389.9 -170.74)"/><path class="cls-46" d="M3735.46,904c26.93,13.73,35.68,37.32,36.72,58s-3.57,41.22.59,62.07c28-19.68,83.9-3.4,105.07,26.58,21.53,29.58,15.16,63-.39,88.28,28.3-2.52,51,29.94,49.83,54.79-.85,24.85-13.42,47-15.15,71.27-58.42-100-154.51-192-283.83-252.2-26.84-20-181.3-64.56-184.56-59.78C3436.29,951.64,3599.93,834.49,3735.46,904Z" transform="translate(-389.9 -170.74)"/><path class="cls-46" d="M571.63,2882.65c1.56-38.73,24.34-61.58,47.9-73.9s49.94-18,72-34c-38-22.1-49-95.91-25.41-136.65,22.9-40.95,65.26-51.47,103-46.91-18.13-31.62,7.49-75.52,37.08-87.45,29.41-12.34,61.95-9.58,91.15-20.59-85.13,121.7-140.76,283-141.49,465.94-8.83,42,22.09,245.83,29.4,247.06C787.63,3205.6,563.37,3077.84,571.63,2882.65Z" transform="translate(-389.9 -170.74)"/><path class="cls-46" d="M3515.06,4677.31c-24.82,17.27-49.74,13.85-68.49,5s-34.67-22.6-55-28.76c4.12,34-36.58,75.58-73,80.1-36.23,5-62.7-16.35-77.65-42-11.12,26.15-50.47,30.88-71.81,18.09-21.52-12.47-35.12-34-55.7-47,115.72-4.35,242.19-45.66,356.27-131.3,30.24-14.26,142.44-129.41,139.76-134.54C3614.2,4391.05,3640.3,4590.6,3515.06,4677.31Z" transform="translate(-389.9 -170.74)"/></svg>